<?xml version="1.0" encoding="UTF-8"?>
<svg width="17px" height="17px" viewBox="0 0 17 17" version="1.1" xmlns="http://www.w3.org/2000/svg" xmlns:xlink="http://www.w3.org/1999/xlink">
    <!-- Generator: Sketch 62 (91390) - https://sketch.com -->
    <title>Group 5</title>
    <desc>Created with Sketch.</desc>
    <defs>
        <polygon id="path-1" points="0 0 17 0 17 17 0 17"></polygon>
    </defs>
    <g id="Editted" stroke="none" stroke-width="1" fill="none" fill-rule="evenodd">
        <g id="Unberry-Landing-Copy-2" transform="translate(-235.000000, -4087.000000)">
            <g id="Group-31" transform="translate(234.000000, 3708.000000)">
                <g id="Group-33">
                    <g id="Group-5" transform="translate(1.000000, 379.000000)">
                        <polygon id="Fill-1" fill="#795BCB" points="16 13.2872279 7.96734338 16 0 13.2872279 0 3.87707781 7.78294236 1 16 3.87707781"></polygon>
                        <g id="Group-4">
                            <mask id="mask-2" fill="white">
                                <use xlink:href="#path-1"></use>
                            </mask>
                            <g id="Clip-3"></g>
                            <path d="M16.1052855,4.09078787 L16.1052855,13.244649 L8.94739079,15.9655573 L8.94739079,6.81169618 L16.1052855,4.09078787 Z M0.894759211,4.09078787 L8.05265395,6.81169618 L8.05265395,15.9655573 L0.894759211,13.244649 L0.894759211,4.09078787 Z M8.50002237,0.864464361 L15.3783118,3.47529249 L8.50002237,6.08612063 L1.62173289,3.47529249 L8.50002237,0.864464361 Z M8.45103553,0.00289522295 C8.410325,0.00641944705 8.37028553,0.0151263536 8.33225921,0.0288086354 L0.279627632,3.09322514 C0.111417105,3.15624656 0.000917105263,3.30716627 -4.57791278e-06,3.47529249 L-4.57791278e-06,13.52327 C-0.00199078947,13.6938839 0.108956579,13.8481205 0.279627632,13.9119712 L8.33225921,16.9697539 C8.43985132,17.0101788 8.56019342,17.0101788 8.66778553,16.9697539 L16.7204171,13.9119712 C16.8910882,13.8481205 17.0020355,13.6938839 17.0000493,13.52327 L17.0000493,3.47529249 C16.9991276,3.30716627 16.8886276,3.15624656 16.7204171,3.09322514 L8.66778553,0.0288086354 C8.59889079,0.00372445215 8.52440395,-0.00518976174 8.45103553,0.00289522295 L8.45103553,0.00289522295 Z" id="Fill-2" fill="#000000" mask="url(#mask-2)"></path>
                        </g>
                    </g>
                </g>
            </g>
        </g>
    </g>
</svg>