<svg xmlns="http://www.w3.org/2000/svg" xmlns:xlink="http://www.w3.org/1999/xlink" width="198" height="160" viewBox="0 0 198 160">
    <defs>
        <path id="xg870akmza" d="M50.92 0L67.67 16.08 67.67 67 16.75 67 0 50.92 0 0z"/>
        <path id="eydjzymh7c" d="M50.92 0L67.67 16.08 67.67 67 16.75 67 0 50.92 0 0z"/>
        <path id="h1xq9pj6ne" d="M50.92 0L67.67 16.08 67.67 67 16.75 67 0 50.92 0 0z"/>
        <path id="p4ueu0i90g" d="M50.92 0L67.67 16.08 67.67 67 16.75 67 0 50.92 0 0z"/>
    </defs>
    <g fill="none" fill-rule="evenodd">
        <g>
            <g>
                <g>
                    <g transform="translate(-1056 -8644) rotate(14 -34664.703 8744.882) translate(52 51)">
                        <mask id="pqczn1aaab" fill="#fff">
                            <use xlink:href="#xg870akmza"/>
                        </mask>
                        <path stroke="#000" d="M51.121-.5L68.17 15.867V67.5H16.549L-.5 51.133V-.5h51.621z"/>
                        <path fill="#FFF" stroke="#000" d="M16.25 16.25h51.621L84.92 32.617V84.25H33.299L16.25 67.883V16.25z" mask="url(#pqczn1aaab)"/>
                        <path stroke="#000" d="M16.75 16.75L0 0" mask="url(#pqczn1aaab)"/>
                    </g>
                    <g transform="translate(-1056 -8644) rotate(14 -34664.703 8744.882) translate(104)">
                        <mask id="dbliqrdxad" fill="#fff">
                            <use xlink:href="#eydjzymh7c"/>
                        </mask>
                        <path stroke="#000" d="M51.121-.5L68.17 15.867V67.5H16.549L-.5 51.133V-.5h51.621z"/>
                        <path fill="#FFF" stroke="#000" d="M16.25 16.25h51.621L84.92 32.617V84.25H33.299L16.25 67.883V16.25z" mask="url(#dbliqrdxad)"/>
                        <path stroke="#000" d="M16.75 16.75L0 0" mask="url(#dbliqrdxad)"/>
                    </g>
                    <g transform="translate(-1056 -8644) rotate(14 -34664.703 8744.882) translate(52)">
                        <mask id="6tx2hfvf2f" fill="#fff">
                            <use xlink:href="#h1xq9pj6ne"/>
                        </mask>
                        <path stroke="#000" d="M51.121-.5L68.17 15.867V67.5H16.549L-.5 51.133V-.5h51.621z"/>
                        <path fill="#FFF" stroke="#000" d="M16.25 16.25h51.621L84.92 32.617V84.25H33.299L16.25 67.883V16.25z" mask="url(#6tx2hfvf2f)"/>
                        <path stroke="#000" d="M16.75 16.75L0 0" mask="url(#6tx2hfvf2f)"/>
                    </g>
                    <g transform="translate(-1056 -8644) rotate(14 -34664.703 8744.882)">
                        <mask id="zr7mng8sih" fill="#fff">
                            <use xlink:href="#p4ueu0i90g"/>
                        </mask>
                        <path stroke="#000" d="M51.121-.5L68.17 15.867V67.5H16.549L-.5 51.133V-.5h51.621z"/>
                        <path fill="#FFF" stroke="#000" d="M16.25 16.25h51.621L84.92 32.617V84.25H33.299L16.25 67.883V16.25z" mask="url(#zr7mng8sih)"/>
                        <path stroke="#000" d="M16.75 16.75L0 0" mask="url(#zr7mng8sih)"/>
                    </g>
                </g>
            </g>
        </g>
    </g>
</svg>
