<?xml version="1.0" encoding="UTF-8"?>
<svg width="915px" height="210px" viewBox="0 0 915 210" version="1.1" xmlns="http://www.w3.org/2000/svg" xmlns:xlink="http://www.w3.org/1999/xlink">
    <!-- Generator: Sketch 62 (91390) - https://sketch.com -->
    <title>Group 21</title>
    <desc>Created with Sketch.</desc>
    <defs>
        <polygon id="path-1" points="50.92 0 67.67 16.08 67.67 67 16.75 67 0 50.92 0 0"></polygon>
        <polygon id="path-3" points="50.92 0 67.67 16.08 67.67 67 16.75 67 0 50.92 0 0"></polygon>
        <polygon id="path-5" points="50.92 0 67.67 16.08 67.67 67 16.75 67 0 50.92 0 0"></polygon>
        <polygon id="path-7" points="50.92 0 67.67 16.08 67.67 67 16.75 67 0 50.92 0 0"></polygon>
        <polygon id="path-9" points="50.92 0 67.67 16.08 67.67 67 16.75 67 0 50.92 0 0"></polygon>
        <polygon id="path-11" points="50.92 0 67.67 16.08 67.67 67 16.75 67 0 50.92 0 0"></polygon>
        <polygon id="path-13" points="50.92 0 67.67 16.08 67.67 67 16.75 67 0 50.92 0 0"></polygon>
        <polygon id="path-15" points="50.92 0 67.67 16.08 67.67 67 16.75 67 0 50.92 0 0"></polygon>
    </defs>
    <g id="Editted" stroke="none" stroke-width="1" fill="none" fill-rule="evenodd">
        <g id="Unberry-Landing-Copy-2" transform="translate(-375.000000, -2720.000000)">
            <g id="Group-21" transform="translate(339.060665, 2720.963715)">
                <g id="Group-8-Copy-5" transform="translate(856.000000, 118.000000) rotate(14.000000) translate(-856.000000, -118.000000) translate(770.000000, 59.000000)">
                    <g id="Group-7">
                        <g id="Cube-3" transform="translate(52.000000, 51.000000)">
                            <g id="Group">
                                <mask id="mask-2" fill="white">
                                    <use xlink:href="#path-1"></use>
                                </mask>
                                <path stroke="#000000" d="M68.17,15.8668911 L68.17,67.5 L16.5488449,67.5 L-0.5,51.1331089 L-0.5,-0.5 L51.1211551,-0.5 L68.17,15.8668911 Z"></path>
                                <path d="M84.92,32.6168911 L84.92,84.25 L33.2988449,84.25 L16.25,67.8831089 L16.25,16.25 L67.8711551,16.25 L84.92,32.6168911 Z" id="Path-Copy" stroke="#000000" fill="#FFFFFF" mask="url(#mask-2)"></path>
                                <line x1="16.75" y1="16.75" x2="0" y2="0" id="Path" stroke="#000000" mask="url(#mask-2)"></line>
                            </g>
                        </g>
                        <g id="Cube-3" transform="translate(104.000000, 0.000000)">
                            <g id="Group">
                                <mask id="mask-4" fill="white">
                                    <use xlink:href="#path-3"></use>
                                </mask>
                                <path stroke="#000000" d="M68.17,15.8668911 L68.17,67.5 L16.5488449,67.5 L-0.5,51.1331089 L-0.5,-0.5 L51.1211551,-0.5 L68.17,15.8668911 Z"></path>
                                <path d="M84.92,32.6168911 L84.92,84.25 L33.2988449,84.25 L16.25,67.8831089 L16.25,16.25 L67.8711551,16.25 L84.92,32.6168911 Z" id="Path-Copy" stroke="#000000" fill="#FFFFFF" mask="url(#mask-4)"></path>
                                <line x1="16.75" y1="16.75" x2="0" y2="0" id="Path" stroke="#000000" mask="url(#mask-4)"></line>
                            </g>
                        </g>
                        <g id="Cube-3" transform="translate(52.000000, 0.000000)">
                            <g id="Group">
                                <mask id="mask-6" fill="white">
                                    <use xlink:href="#path-5"></use>
                                </mask>
                                <path stroke="#000000" d="M68.17,15.8668911 L68.17,67.5 L16.5488449,67.5 L-0.5,51.1331089 L-0.5,-0.5 L51.1211551,-0.5 L68.17,15.8668911 Z"></path>
                                <path d="M84.92,32.6168911 L84.92,84.25 L33.2988449,84.25 L16.25,67.8831089 L16.25,16.25 L67.8711551,16.25 L84.92,32.6168911 Z" id="Path-Copy" stroke="#000000" fill="#FFFFFF" mask="url(#mask-6)"></path>
                                <line x1="16.75" y1="16.75" x2="0" y2="0" id="Path" stroke="#000000" mask="url(#mask-6)"></line>
                            </g>
                        </g>
                        <g id="Cube-3">
                            <g id="Group">
                                <mask id="mask-8" fill="white">
                                    <use xlink:href="#path-7"></use>
                                </mask>
                                <path stroke="#000000" d="M68.17,15.8668911 L68.17,67.5 L16.5488449,67.5 L-0.5,51.1331089 L-0.5,-0.5 L51.1211551,-0.5 L68.17,15.8668911 Z"></path>
                                <path d="M84.92,32.6168911 L84.92,84.25 L33.2988449,84.25 L16.25,67.8831089 L16.25,16.25 L67.8711551,16.25 L84.92,32.6168911 Z" id="Path-Copy" stroke="#000000" fill="#FFFFFF" mask="url(#mask-8)"></path>
                                <line x1="16.75" y1="16.75" x2="0" y2="0" id="Path" stroke="#000000" mask="url(#mask-8)"></line>
                            </g>
                        </g>
                    </g>
                </g>
                <g id="Group-10-Copy-11" transform="translate(97.000000, 104.000000) rotate(34.000000) translate(-97.000000, -104.000000) translate(37.000000, 20.000000)">
                    <g id="Group" transform="translate(0.000000, 0.000000)">
                        <g id="Group-4-Copy" transform="translate(-0.000000, 0.000000)">
                            <g id="Cube-3" transform="translate(52.000000, 101.000000)">
                                <g id="Group">
                                    <mask id="mask-10" fill="white">
                                        <use xlink:href="#path-9"></use>
                                    </mask>
                                    <path stroke="#000000" d="M68.17,15.8668911 L68.17,67.5 L16.5488449,67.5 L-0.5,51.1331089 L-0.5,-0.5 L51.1211551,-0.5 L68.17,15.8668911 Z"></path>
                                    <path d="M84.92,32.6168911 L84.92,84.25 L33.2988449,84.25 L16.25,67.8831089 L16.25,16.25 L67.8711551,16.25 L84.92,32.6168911 Z" id="Path-Copy" stroke="#000000" fill="#FFFFFF" mask="url(#mask-10)"></path>
                                    <line x1="16.75" y1="16.75" x2="0" y2="0" id="Path" stroke="#000000" mask="url(#mask-10)"></line>
                                </g>
                            </g>
                            <g id="Cube-3" transform="translate(52.000000, 51.000000)">
                                <g id="Group">
                                    <mask id="mask-12" fill="white">
                                        <use xlink:href="#path-11"></use>
                                    </mask>
                                    <path stroke="#000000" d="M68.17,15.8668911 L68.17,67.5 L16.5488449,67.5 L-0.5,51.1331089 L-0.5,-0.5 L51.1211551,-0.5 L68.17,15.8668911 Z"></path>
                                    <path d="M84.92,32.6168911 L84.92,84.25 L33.2988449,84.25 L16.25,67.8831089 L16.25,16.25 L67.8711551,16.25 L84.92,32.6168911 Z" id="Path-Copy" stroke="#000000" fill="#FFFFFF" mask="url(#mask-12)"></path>
                                    <line x1="16.75" y1="16.75" x2="0" y2="0" id="Path" stroke="#000000" mask="url(#mask-12)"></line>
                                </g>
                            </g>
                            <g id="Cube-3" transform="translate(0.000000, 51.000000)">
                                <g id="Group">
                                    <mask id="mask-14" fill="white">
                                        <use xlink:href="#path-13"></use>
                                    </mask>
                                    <path stroke="#000000" d="M68.17,15.8668911 L68.17,67.5 L16.5488449,67.5 L-0.5,51.1331089 L-0.5,-0.5 L51.1211551,-0.5 L68.17,15.8668911 Z"></path>
                                    <path d="M84.92,32.6168911 L84.92,84.25 L33.2988449,84.25 L16.25,67.8831089 L16.25,16.25 L67.8711551,16.25 L84.92,32.6168911 Z" id="Path-Copy" stroke="#000000" fill="#FFFFFF" mask="url(#mask-14)"></path>
                                    <line x1="16.75" y1="16.75" x2="0" y2="0" id="Path" stroke="#000000" mask="url(#mask-14)"></line>
                                </g>
                            </g>
                            <g id="Cube-3">
                                <g id="Group">
                                    <mask id="mask-16" fill="white">
                                        <use xlink:href="#path-15"></use>
                                    </mask>
                                    <path stroke="#000000" d="M68.17,15.8668911 L68.17,67.5 L16.5488449,67.5 L-0.5,51.1331089 L-0.5,-0.5 L51.1211551,-0.5 L68.17,15.8668911 Z"></path>
                                    <path d="M84.92,32.6168911 L84.92,84.25 L33.2988449,84.25 L16.25,67.8831089 L16.25,16.25 L67.8711551,16.25 L84.92,32.6168911 Z" id="Path-Copy" stroke="#000000" fill="#FFFFFF" mask="url(#mask-16)"></path>
                                    <line x1="16.75" y1="16.75" x2="0" y2="0" id="Path" stroke="#000000" mask="url(#mask-16)"></line>
                                </g>
                            </g>
                        </g>
                    </g>
                </g>
            </g>
        </g>
    </g>
</svg>