<?xml version="1.0" encoding="UTF-8"?>
<svg width="738px" height="510px" viewBox="0 0 738 510" version="1.1" xmlns="http://www.w3.org/2000/svg" xmlns:xlink="http://www.w3.org/1999/xlink">
    <!-- Generator: Sketch 62 (91390) - https://sketch.com -->
    <title>Group 18</title>
    <desc>Created with Sketch.</desc>
    <defs>
        <polygon id="path-1" points="50.92 0 67.67 16.08 67.67 67 16.75 67 0 50.92 0 0"></polygon>
        <polygon id="path-3" points="50.92 0 67.67 16.08 67.67 67 16.75 67 0 50.92 0 0"></polygon>
        <polygon id="path-5" points="50.92 0 67.67 16.08 67.67 67 16.75 67 0 50.92 0 0"></polygon>
        <polygon id="path-7" points="50.92 0 67.67 16.08 67.67 67 16.75 67 0 50.92 0 0"></polygon>
        <polygon id="path-9" points="50.92 0 67.67 16.08 67.67 67 16.75 67 0 50.92 0 0"></polygon>
        <polygon id="path-11" points="50.92 0 67.67 16.08 67.67 67 16.75 67 0 50.92 0 0"></polygon>
        <polygon id="path-13" points="50.92 0 67.67 16.08 67.67 67 16.75 67 0 50.92 0 0"></polygon>
        <polygon id="path-15" points="50.92 0 67.67 16.08 67.67 67 16.75 67 0 50.92 0 0"></polygon>
        <polygon id="path-17" points="50.92 0 67.67 16.08 67.67 67 16.75 67 0 50.92 0 0"></polygon>
        <polygon id="path-19" points="50.92 0 67.67 16.08 67.67 67 16.75 67 0 50.92 0 0"></polygon>
        <polygon id="path-21" points="50.92 0 67.67 16.08 67.67 67 16.75 67 0 50.92 0 0"></polygon>
        <polygon id="path-23" points="50.92 0 67.67 16.08 67.67 67 16.75 67 0 50.92 0 0"></polygon>
        <polygon id="path-25" points="50.92 0 67.67 16.08 67.67 67 16.75 67 0 50.92 0 0"></polygon>
        <polygon id="path-27" points="50.92 0 67.67 16.08 67.67 67 16.75 67 0 50.92 0 0"></polygon>
        <polygon id="path-29" points="50.92 0 67.67 16.08 67.67 67 16.75 67 0 50.92 0 0"></polygon>
        <polygon id="path-31" points="50.92 0 67.67 16.08 67.67 67 16.75 67 0 50.92 0 0"></polygon>
    </defs>
    <g id="Editted" stroke="none" stroke-width="1" fill="none" fill-rule="evenodd">
        <g id="Unberry-Landing-Copy-1" transform="translate(0.000000, -6602.000000)">
            <g id="Group-18" transform="translate(-56.000000, 6603.197673)">
                <g id="Grid-3" opacity="0.259150054" transform="translate(0.000000, 104.802327)" stroke="#979797">
                    <g id="Group" transform="translate(0.000000, 33.810627)">
                        <line x1="0" y1="149.5" x2="714" y2="149.5" id="Path-16"></line>
                        <line x1="2.77444734e-13" y1="190.235695" x2="714" y2="190.235695" id="Path-16-Copy"></line>
                        <line x1="2.77444734e-13" y1="230.97139" x2="714" y2="230.97139" id="Path-16-Copy-2"></line>
                        <line x1="0" y1="0.407356948" x2="714" y2="0.407356948" id="Path-16"></line>
                        <line x1="0" y1="41.1430518" x2="714" y2="41.1430518" id="Path-16-Copy"></line>
                        <line x1="0" y1="81.8787466" x2="714" y2="81.8787466" id="Path-16-Copy-2"></line>
                        <line x1="0" y1="116.09673" x2="714" y2="116.09673" id="Path-16-Copy-3"></line>
                    </g>
                    <g id="Group-2" transform="translate(-79.174825, 0.000000)">
                        <line x1="872.34965" y1="299" x2="604.867133" y2="0" id="Path-15-Copy-9"></line>
                        <line x1="834.545455" y1="299" x2="567.062937" y2="0" id="Path-15-Copy-15"></line>
                        <line x1="796.741259" y1="299" x2="529.258741" y2="0" id="Path-15-Copy-16"></line>
                        <line x1="758.937063" y1="299" x2="491.454545" y2="0" id="Path-15-Copy-17"></line>
                        <line x1="721.132867" y1="299" x2="453.65035" y2="0" id="Path-15-Copy-18"></line>
                        <line x1="683.328671" y1="299" x2="415.846154" y2="0" id="Path-15-Copy-19"></line>
                        <line x1="645.524476" y1="299" x2="378.041958" y2="0" id="Path-15-Copy-20"></line>
                        <line x1="607.72028" y1="299" x2="340.237762" y2="0" id="Path-15-Copy-21"></line>
                        <line x1="569.916084" y1="299" x2="302.433566" y2="0" id="Path-15-Copy-22"></line>
                        <line x1="532.111888" y1="299" x2="264.629371" y2="0" id="Path-15-Copy-23"></line>
                        <line x1="494.307692" y1="299" x2="226.825175" y2="0" id="Path-15-Copy-24"></line>
                        <line x1="456.503497" y1="299" x2="189.020979" y2="0" id="Path-15-Copy-25"></line>
                        <line x1="418.699301" y1="299" x2="151.216783" y2="0" id="Path-15-Copy-26"></line>
                        <line x1="380.895105" y1="299" x2="113.412587" y2="0" id="Path-15-Copy-27"></line>
                        <line x1="343.090909" y1="299" x2="75.6083916" y2="0" id="Path-15-Copy-28"></line>
                        <line x1="305.286713" y1="299" x2="37.8041958" y2="0" id="Path-15-Copy-29"></line>
                        <line x1="267.482517" y1="299" x2="0" y2="0" id="Path-15-Copy-30"></line>
                    </g>
                </g>
                <polygon id="Path-15" fill="#D7E4E3" points="221 214.802327 205 198.802327 256 198.802327 273 214.802327"></polygon>
                <polygon id="Path-15-Copy" fill="#D7E4E3" points="170 214.802327 154 198.802327 205 198.802327 222 214.802327"></polygon>
                <polygon id="Path-15" fill="#D7E4E3" points="567 346.802327 551 330.802327 602 330.802327 619 346.802327"></polygon>
                <g id="Group" transform="translate(154.900860, 0.000000)">
                    <g id="Group-4-Copy" transform="translate(-0.000000, 0.000000)">
                        <g id="Cube-3" transform="translate(52.000000, 101.000000)">
                            <g id="Group">
                                <mask id="mask-2" fill="white">
                                    <use xlink:href="#path-1"></use>
                                </mask>
                                <path stroke="#000000" d="M68.17,15.8668911 L68.17,67.5 L16.5488449,67.5 L-0.5,51.1331089 L-0.5,-0.5 L51.1211551,-0.5 L68.17,15.8668911 Z"></path>
                                <path d="M84.92,32.6168911 L84.92,84.25 L33.2988449,84.25 L16.25,67.8831089 L16.25,16.25 L67.8711551,16.25 L84.92,32.6168911 Z" id="Path-Copy" stroke="#000000" fill="#FFFFFF" mask="url(#mask-2)"></path>
                                <line x1="16.75" y1="16.75" x2="0" y2="0" id="Path" stroke="#000000" mask="url(#mask-2)"></line>
                            </g>
                        </g>
                        <g id="Cube-3" transform="translate(52.000000, 51.000000)">
                            <g id="Group">
                                <mask id="mask-4" fill="white">
                                    <use xlink:href="#path-3"></use>
                                </mask>
                                <path stroke="#000000" d="M68.17,15.8668911 L68.17,67.5 L16.5488449,67.5 L-0.5,51.1331089 L-0.5,-0.5 L51.1211551,-0.5 L68.17,15.8668911 Z"></path>
                                <path d="M84.92,32.6168911 L84.92,84.25 L33.2988449,84.25 L16.25,67.8831089 L16.25,16.25 L67.8711551,16.25 L84.92,32.6168911 Z" id="Path-Copy" stroke="#000000" fill="#FFFFFF" mask="url(#mask-4)"></path>
                                <line x1="16.75" y1="16.75" x2="0" y2="0" id="Path" stroke="#000000" mask="url(#mask-4)"></line>
                            </g>
                        </g>
                        <g id="Cube-3" transform="translate(0.000000, 51.000000)">
                            <g id="Group">
                                <mask id="mask-6" fill="white">
                                    <use xlink:href="#path-5"></use>
                                </mask>
                                <path stroke="#000000" d="M68.17,15.8668911 L68.17,67.5 L16.5488449,67.5 L-0.5,51.1331089 L-0.5,-0.5 L51.1211551,-0.5 L68.17,15.8668911 Z"></path>
                                <path d="M84.92,32.6168911 L84.92,84.25 L33.2988449,84.25 L16.25,67.8831089 L16.25,16.25 L67.8711551,16.25 L84.92,32.6168911 Z" id="Path-Copy" stroke="#000000" fill="#FFFFFF" mask="url(#mask-6)"></path>
                                <line x1="16.75" y1="16.75" x2="0" y2="0" id="Path" stroke="#000000" mask="url(#mask-6)"></line>
                            </g>
                        </g>
                        <g id="Cube-3">
                            <g id="Group">
                                <mask id="mask-8" fill="white">
                                    <use xlink:href="#path-7"></use>
                                </mask>
                                <path stroke="#000000" d="M68.17,15.8668911 L68.17,67.5 L16.5488449,67.5 L-0.5,51.1331089 L-0.5,-0.5 L51.1211551,-0.5 L68.17,15.8668911 Z"></path>
                                <path d="M84.92,32.6168911 L84.92,84.25 L33.2988449,84.25 L16.25,67.8831089 L16.25,16.25 L67.8711551,16.25 L84.92,32.6168911 Z" id="Path-Copy" stroke="#000000" fill="#FFFFFF" mask="url(#mask-8)"></path>
                                <line x1="16.75" y1="16.75" x2="0" y2="0" id="Path" stroke="#000000" mask="url(#mask-8)"></line>
                            </g>
                        </g>
                    </g>
                </g>
                <path d="M275.07086,66.8668911 L275.07086,168.5 L223.449704,168.5 L206.400866,152.133115 L206.399874,118.5 L171.449704,118.5 L154.40086,102.133109 L154.40086,51 L154.40086,-0.5 L206.022015,-0.5 L223.070866,15.8668969 L223.069874,50.5 L258.022015,50.5 L275.07086,66.8668911 Z" id="Combined-Shape" stroke="#000000" fill="#FFFFFF" style="mix-blend-mode: multiply;"></path>
                <g id="Group-4-Copy-2" transform="translate(342.000000, 75.802327)">
                    <g id="Cube-3" transform="translate(0.000000, 152.000000)">
                        <g id="Group">
                            <mask id="mask-10" fill="white">
                                <use xlink:href="#path-9"></use>
                            </mask>
                            <path stroke="#000000" d="M68.17,15.8668911 L68.17,67.5 L16.5488449,67.5 L-0.5,51.1331089 L-0.5,-0.5 L51.1211551,-0.5 L68.17,15.8668911 Z"></path>
                            <path d="M84.92,32.6168911 L84.92,84.25 L33.2988449,84.25 L16.25,67.8831089 L16.25,16.25 L67.8711551,16.25 L84.92,32.6168911 Z" id="Path-Copy" stroke="#000000" fill="#FFFFFF" mask="url(#mask-10)"></path>
                            <line x1="16.75" y1="16.75" x2="0" y2="0" id="Path" stroke="#000000" mask="url(#mask-10)"></line>
                        </g>
                    </g>
                    <g id="Cube-3" transform="translate(0.000000, 102.000000)">
                        <g id="Group">
                            <mask id="mask-12" fill="white">
                                <use xlink:href="#path-11"></use>
                            </mask>
                            <path stroke="#000000" d="M68.17,15.8668911 L68.17,67.5 L16.5488449,67.5 L-0.5,51.1331089 L-0.5,-0.5 L51.1211551,-0.5 L68.17,15.8668911 Z"></path>
                            <path d="M84.92,32.6168911 L84.92,84.25 L33.2988449,84.25 L16.25,67.8831089 L16.25,16.25 L67.8711551,16.25 L84.92,32.6168911 Z" id="Path-Copy" stroke="#000000" fill="#FFFFFF" mask="url(#mask-12)"></path>
                            <line x1="16.75" y1="16.75" x2="0" y2="0" id="Path" stroke="#000000" mask="url(#mask-12)"></line>
                        </g>
                    </g>
                    <g id="Cube-3" transform="translate(0.000000, 51.000000)">
                        <g id="Group">
                            <mask id="mask-14" fill="white">
                                <use xlink:href="#path-13"></use>
                            </mask>
                            <path stroke="#000000" d="M68.17,15.8668911 L68.17,67.5 L16.5488449,67.5 L-0.5,51.1331089 L-0.5,-0.5 L51.1211551,-0.5 L68.17,15.8668911 Z"></path>
                            <path d="M84.92,32.6168911 L84.92,84.25 L33.2988449,84.25 L16.25,67.8831089 L16.25,16.25 L67.8711551,16.25 L84.92,32.6168911 Z" id="Path-Copy" stroke="#000000" fill="#FFFFFF" mask="url(#mask-14)"></path>
                            <line x1="16.75" y1="16.75" x2="0" y2="0" id="Path" stroke="#000000" mask="url(#mask-14)"></line>
                        </g>
                    </g>
                    <g id="Cube-3">
                        <g id="Group">
                            <mask id="mask-16" fill="white">
                                <use xlink:href="#path-15"></use>
                            </mask>
                            <path stroke="#000000" d="M68.17,15.8668911 L68.17,67.5 L16.5488449,67.5 L-0.5,51.1331089 L-0.5,-0.5 L51.1211551,-0.5 L68.17,15.8668911 Z"></path>
                            <path d="M84.92,32.6168911 L84.92,84.25 L33.2988449,84.25 L16.25,67.8831089 L16.25,16.25 L67.8711551,16.25 L84.92,32.6168911 Z" id="Path-Copy" stroke="#000000" fill="#FFFFFF" mask="url(#mask-16)"></path>
                            <line x1="16.75" y1="16.75" x2="0" y2="0" id="Path" stroke="#000000" mask="url(#mask-16)"></line>
                        </g>
                    </g>
                </g>
                <path d="M410.17,142.802327 L410.17,193.802327 L410.17,295.302327 L358.548845,295.302327 L341.5,278.935436 L341.5,177.802327 L341.5,126.802327 L341.5,75.3023274 L393.121155,75.3023274 L410.17,91.6692185 L410.17,142.802327 Z" id="Combined-Shape" stroke="#000000" fill="#F2C84C" style="mix-blend-mode: multiply;"></path>
                <g id="Group-7" transform="translate(245.000000, 338.802327)">
                    <g id="Cube-3" transform="translate(52.000000, 102.000000)">
                        <g id="Group">
                            <mask id="mask-18" fill="white">
                                <use xlink:href="#path-17"></use>
                            </mask>
                            <path stroke="#000000" d="M68.17,15.8668911 L68.17,67.5 L16.5488449,67.5 L-0.5,51.1331089 L-0.5,-0.5 L51.1211551,-0.5 L68.17,15.8668911 Z"></path>
                            <path d="M84.92,32.6168911 L84.92,84.25 L33.2988449,84.25 L16.25,67.8831089 L16.25,16.25 L67.8711551,16.25 L84.92,32.6168911 Z" id="Path-Copy" stroke="#000000" fill="#FFFFFF" mask="url(#mask-18)"></path>
                            <line x1="16.75" y1="16.75" x2="0" y2="0" id="Path" stroke="#000000" mask="url(#mask-18)"></line>
                        </g>
                    </g>
                    <g id="Cube-3" transform="translate(52.000000, 51.000000)">
                        <g id="Group">
                            <mask id="mask-20" fill="white">
                                <use xlink:href="#path-19"></use>
                            </mask>
                            <path stroke="#000000" d="M68.17,15.8668911 L68.17,67.5 L16.5488449,67.5 L-0.5,51.1331089 L-0.5,-0.5 L51.1211551,-0.5 L68.17,15.8668911 Z"></path>
                            <path d="M84.92,32.6168911 L84.92,84.25 L33.2988449,84.25 L16.25,67.8831089 L16.25,16.25 L67.8711551,16.25 L84.92,32.6168911 Z" id="Path-Copy" stroke="#000000" fill="#FFFFFF" mask="url(#mask-20)"></path>
                            <line x1="16.75" y1="16.75" x2="0" y2="0" id="Path" stroke="#000000" mask="url(#mask-20)"></line>
                        </g>
                    </g>
                    <g id="Cube-3" transform="translate(52.000000, 0.000000)">
                        <g id="Group">
                            <mask id="mask-22" fill="white">
                                <use xlink:href="#path-21"></use>
                            </mask>
                            <path stroke="#000000" d="M68.17,15.8668911 L68.17,67.5 L16.5488449,67.5 L-0.5,51.1331089 L-0.5,-0.5 L51.1211551,-0.5 L68.17,15.8668911 Z"></path>
                            <path d="M84.92,32.6168911 L84.92,84.25 L33.2988449,84.25 L16.25,67.8831089 L16.25,16.25 L67.8711551,16.25 L84.92,32.6168911 Z" id="Path-Copy" stroke="#000000" fill="#FFFFFF" mask="url(#mask-22)"></path>
                            <line x1="16.75" y1="16.75" x2="0" y2="0" id="Path" stroke="#000000" mask="url(#mask-22)"></line>
                        </g>
                    </g>
                    <g id="Cube-3" transform="translate(0.000000, 0.000000)">
                        <g id="Group">
                            <mask id="mask-24" fill="white">
                                <use xlink:href="#path-23"></use>
                            </mask>
                            <path stroke="#000000" d="M68.17,15.8668911 L68.17,67.5 L16.5488449,67.5 L-0.5,51.1331089 L-0.5,-0.5 L51.1211551,-0.5 L68.17,15.8668911 Z"></path>
                            <path d="M84.92,32.6168911 L84.92,84.25 L33.2988449,84.25 L16.25,67.8831089 L16.25,16.25 L67.8711551,16.25 L84.92,32.6168911 Z" id="Path-Copy" stroke="#000000" fill="#FFFFFF" mask="url(#mask-24)"></path>
                            <line x1="16.75" y1="16.75" x2="0" y2="0" id="Path" stroke="#000000" mask="url(#mask-24)"></line>
                        </g>
                    </g>
                </g>
                <path d="M365.17,456.802327 L365.17,508.302327 L313.548845,508.302327 L296.5,491.935436 L296.5,440.802327 L296.5,406.302327 L261.548845,406.302327 L244.5,389.935436 L244.5,338.302327 L296.121183,338.302327 L296.5,338.666062 L348.121155,338.302327 L365.17,354.669218 L365.17,405.802327 L365.17,456.802327 Z" id="Combined-Shape" stroke="#000000" fill="#FFFFFF" style="mix-blend-mode: multiply;"></path>
                <g id="Group-7" transform="translate(497.000000, 187.802327)">
                    <g id="Cube-3" transform="translate(52.000000, 51.000000)">
                        <g id="Group">
                            <mask id="mask-26" fill="white">
                                <use xlink:href="#path-25"></use>
                            </mask>
                            <path stroke="#000000" d="M68.17,15.8668911 L68.17,67.5 L16.5488449,67.5 L-0.5,51.1331089 L-0.5,-0.5 L51.1211551,-0.5 L68.17,15.8668911 Z"></path>
                            <path d="M84.92,32.6168911 L84.92,84.25 L33.2988449,84.25 L16.25,67.8831089 L16.25,16.25 L67.8711551,16.25 L84.92,32.6168911 Z" id="Path-Copy" stroke="#000000" fill="#FFFFFF" mask="url(#mask-26)"></path>
                            <line x1="16.75" y1="16.75" x2="0" y2="0" id="Path" stroke="#000000" mask="url(#mask-26)"></line>
                        </g>
                    </g>
                    <g id="Cube-3" transform="translate(104.000000, 0.000000)">
                        <g id="Group">
                            <mask id="mask-28" fill="white">
                                <use xlink:href="#path-27"></use>
                            </mask>
                            <path stroke="#000000" d="M68.17,15.8668911 L68.17,67.5 L16.5488449,67.5 L-0.5,51.1331089 L-0.5,-0.5 L51.1211551,-0.5 L68.17,15.8668911 Z"></path>
                            <path d="M84.92,32.6168911 L84.92,84.25 L33.2988449,84.25 L16.25,67.8831089 L16.25,16.25 L67.8711551,16.25 L84.92,32.6168911 Z" id="Path-Copy" stroke="#000000" fill="#FFFFFF" mask="url(#mask-28)"></path>
                            <line x1="16.75" y1="16.75" x2="0" y2="0" id="Path" stroke="#000000" mask="url(#mask-28)"></line>
                        </g>
                    </g>
                    <g id="Cube-3" transform="translate(52.000000, 0.000000)">
                        <g id="Group">
                            <mask id="mask-30" fill="white">
                                <use xlink:href="#path-29"></use>
                            </mask>
                            <path stroke="#000000" d="M68.17,15.8668911 L68.17,67.5 L16.5488449,67.5 L-0.5,51.1331089 L-0.5,-0.5 L51.1211551,-0.5 L68.17,15.8668911 Z"></path>
                            <path d="M84.92,32.6168911 L84.92,84.25 L33.2988449,84.25 L16.25,67.8831089 L16.25,16.25 L67.8711551,16.25 L84.92,32.6168911 Z" id="Path-Copy" stroke="#000000" fill="#FFFFFF" mask="url(#mask-30)"></path>
                            <line x1="16.75" y1="16.75" x2="0" y2="0" id="Path" stroke="#000000" mask="url(#mask-30)"></line>
                        </g>
                    </g>
                    <g id="Cube-3">
                        <g id="Group">
                            <mask id="mask-32" fill="white">
                                <use xlink:href="#path-31"></use>
                            </mask>
                            <path stroke="#000000" d="M68.17,15.8668911 L68.17,67.5 L16.5488449,67.5 L-0.5,51.1331089 L-0.5,-0.5 L51.1211551,-0.5 L68.17,15.8668911 Z"></path>
                            <path d="M84.92,32.6168911 L84.92,84.25 L33.2988449,84.25 L16.25,67.8831089 L16.25,16.25 L67.8711551,16.25 L84.92,32.6168911 Z" id="Path-Copy" stroke="#000000" fill="#FFFFFF" mask="url(#mask-32)"></path>
                            <line x1="16.75" y1="16.75" x2="0" y2="0" id="Path" stroke="#000000" mask="url(#mask-32)"></line>
                        </g>
                    </g>
                </g>
                <path d="M617.17,254.938801 L617.17,306.302327 L565.548845,306.302327 L548.500006,289.935442 L548.499014,255.302327 L513.548845,255.302327 L496.5,238.935436 L496.5,187.302327 L548.121318,187.302327 L548.500131,187.666395 L600.121318,187.302327 L600.500131,187.666395 L652.121155,187.302327 L669.17,203.669218 L669.17,255.302327 L617.548951,255.302327 L617.17,254.938801 Z" id="Combined-Shape" stroke="#000000" fill="#FFFFFF" style="mix-blend-mode: multiply;"></path>
            </g>
        </g>
    </g>
</svg>