<?xml version="1.0" encoding="UTF-8"?>
<svg width="1394px" height="664px" viewBox="0 0 1394 664" version="1.1" xmlns="http://www.w3.org/2000/svg" xmlns:xlink="http://www.w3.org/1999/xlink">
    <!-- Generator: Sketch 62 (91390) - https://sketch.com -->
    <title>Big grid</title>
    <desc>Created with Sketch.</desc>
    <g id="Editted" stroke="none" stroke-width="1" fill="none" fill-rule="evenodd" opacity="0.100000001">
        <g id="Unberry-Landing-Copy-1" transform="translate(0.000000, -8658.000000)" stroke="#979797">
            <g id="Group-6" transform="translate(-1414.000000, 8659.000000)">
                <g id="Group-70">
                    <g id="Big-grid">
                        <g id="Group-22" transform="translate(0.000000, 311.000000)">
                            <g id="Grid-3" transform="translate(848.000000, 0.000000)">
                                <g id="Group" transform="translate(0.000000, 41.500000)">
                                    <line x1="0" y1="183.5" x2="1001" y2="183.5" id="Path-16"></line>
                                    <line x1="3.88966637e-13" y1="233.5" x2="1001" y2="233.5" id="Path-16-Copy"></line>
                                    <line x1="3.88966637e-13" y1="283.5" x2="1001" y2="283.5" id="Path-16-Copy-2"></line>
                                    <line x1="0" y1="0.5" x2="1001" y2="0.5" id="Path-16"></line>
                                    <line x1="0" y1="50.5" x2="1001" y2="50.5" id="Path-16-Copy"></line>
                                    <line x1="0" y1="100.5" x2="1001" y2="100.5" id="Path-16-Copy-2"></line>
                                    <line x1="0" y1="142.5" x2="1001" y2="142.5" id="Path-16-Copy-3"></line>
                                </g>
                                <g id="Group-2" transform="translate(-111.000000, 0.000000)">
                                    <line x1="1223" y1="367" x2="848" y2="0" id="Path-15-Copy-9"></line>
                                    <line x1="1170" y1="367" x2="795" y2="0" id="Path-15-Copy-15"></line>
                                    <line x1="1117" y1="367" x2="742" y2="0" id="Path-15-Copy-16"></line>
                                    <line x1="1064" y1="367" x2="689" y2="0" id="Path-15-Copy-17"></line>
                                    <line x1="1011" y1="367" x2="636" y2="0" id="Path-15-Copy-18"></line>
                                    <line x1="958" y1="367" x2="583" y2="0" id="Path-15-Copy-19"></line>
                                    <line x1="905" y1="367" x2="530" y2="0" id="Path-15-Copy-20"></line>
                                    <line x1="852" y1="367" x2="477" y2="0" id="Path-15-Copy-21"></line>
                                    <line x1="799" y1="367" x2="424" y2="0" id="Path-15-Copy-22"></line>
                                    <line x1="746" y1="367" x2="371" y2="0" id="Path-15-Copy-23"></line>
                                    <line x1="693" y1="367" x2="318" y2="0" id="Path-15-Copy-24"></line>
                                    <line x1="640" y1="367" x2="265" y2="0" id="Path-15-Copy-25"></line>
                                    <line x1="587" y1="367" x2="212" y2="0" id="Path-15-Copy-26"></line>
                                    <line x1="534" y1="367" x2="159" y2="0" id="Path-15-Copy-27"></line>
                                    <line x1="481" y1="367" x2="106" y2="0" id="Path-15-Copy-28"></line>
                                    <line x1="428" y1="367" x2="53" y2="0" id="Path-15-Copy-29"></line>
                                    <line x1="375" y1="367" x2="0" y2="0" id="Path-15-Copy-30"></line>
                                </g>
                            </g>
                            <g id="Grid-3" transform="translate(1696.000000, 0.000000)">
                                <g id="Group" transform="translate(0.000000, 41.500000)">
                                    <line x1="0" y1="183.5" x2="1001" y2="183.5" id="Path-16"></line>
                                    <line x1="3.88966637e-13" y1="233.5" x2="1001" y2="233.5" id="Path-16-Copy"></line>
                                    <line x1="3.88966637e-13" y1="283.5" x2="1001" y2="283.5" id="Path-16-Copy-2"></line>
                                    <line x1="0" y1="0.5" x2="1001" y2="0.5" id="Path-16"></line>
                                    <line x1="0" y1="50.5" x2="1001" y2="50.5" id="Path-16-Copy"></line>
                                    <line x1="0" y1="100.5" x2="1001" y2="100.5" id="Path-16-Copy-2"></line>
                                    <line x1="0" y1="142.5" x2="1001" y2="142.5" id="Path-16-Copy-3"></line>
                                </g>
                                <g id="Group-2" transform="translate(-111.000000, 0.000000)">
                                    <line x1="1223" y1="367" x2="848" y2="0" id="Path-15-Copy-9"></line>
                                    <line x1="1170" y1="367" x2="795" y2="0" id="Path-15-Copy-15"></line>
                                    <line x1="1117" y1="367" x2="742" y2="0" id="Path-15-Copy-16"></line>
                                    <line x1="1064" y1="367" x2="689" y2="0" id="Path-15-Copy-17"></line>
                                    <line x1="1011" y1="367" x2="636" y2="0" id="Path-15-Copy-18"></line>
                                    <line x1="958" y1="367" x2="583" y2="0" id="Path-15-Copy-19"></line>
                                    <line x1="905" y1="367" x2="530" y2="0" id="Path-15-Copy-20"></line>
                                    <line x1="852" y1="367" x2="477" y2="0" id="Path-15-Copy-21"></line>
                                    <line x1="799" y1="367" x2="424" y2="0" id="Path-15-Copy-22"></line>
                                    <line x1="746" y1="367" x2="371" y2="0" id="Path-15-Copy-23"></line>
                                    <line x1="693" y1="367" x2="318" y2="0" id="Path-15-Copy-24"></line>
                                    <line x1="640" y1="367" x2="265" y2="0" id="Path-15-Copy-25"></line>
                                    <line x1="587" y1="367" x2="212" y2="0" id="Path-15-Copy-26"></line>
                                    <line x1="534" y1="367" x2="159" y2="0" id="Path-15-Copy-27"></line>
                                    <line x1="481" y1="367" x2="106" y2="0" id="Path-15-Copy-28"></line>
                                    <line x1="428" y1="367" x2="53" y2="0" id="Path-15-Copy-29"></line>
                                    <line x1="375" y1="367" x2="0" y2="0" id="Path-15-Copy-30"></line>
                                </g>
                            </g>
                            <g id="Grid-3">
                                <g id="Group" transform="translate(0.000000, 41.500000)">
                                    <line x1="0" y1="183.5" x2="1001" y2="183.5" id="Path-16"></line>
                                    <line x1="3.88966637e-13" y1="233.5" x2="1001" y2="233.5" id="Path-16-Copy"></line>
                                    <line x1="3.88966637e-13" y1="283.5" x2="1001" y2="283.5" id="Path-16-Copy-2"></line>
                                    <line x1="0" y1="0.5" x2="1001" y2="0.5" id="Path-16"></line>
                                    <line x1="0" y1="50.5" x2="1001" y2="50.5" id="Path-16-Copy"></line>
                                    <line x1="0" y1="100.5" x2="1001" y2="100.5" id="Path-16-Copy-2"></line>
                                    <line x1="0" y1="142.5" x2="1001" y2="142.5" id="Path-16-Copy-3"></line>
                                </g>
                                <g id="Group-2" transform="translate(-111.000000, 0.000000)">
                                    <line x1="1223" y1="367" x2="848" y2="0" id="Path-15-Copy-9"></line>
                                    <line x1="1170" y1="367" x2="795" y2="0" id="Path-15-Copy-15"></line>
                                    <line x1="1117" y1="367" x2="742" y2="0" id="Path-15-Copy-16"></line>
                                    <line x1="1064" y1="367" x2="689" y2="0" id="Path-15-Copy-17"></line>
                                    <line x1="1011" y1="367" x2="636" y2="0" id="Path-15-Copy-18"></line>
                                    <line x1="958" y1="367" x2="583" y2="0" id="Path-15-Copy-19"></line>
                                    <line x1="905" y1="367" x2="530" y2="0" id="Path-15-Copy-20"></line>
                                    <line x1="852" y1="367" x2="477" y2="0" id="Path-15-Copy-21"></line>
                                    <line x1="799" y1="367" x2="424" y2="0" id="Path-15-Copy-22"></line>
                                    <line x1="746" y1="367" x2="371" y2="0" id="Path-15-Copy-23"></line>
                                    <line x1="693" y1="367" x2="318" y2="0" id="Path-15-Copy-24"></line>
                                    <line x1="640" y1="367" x2="265" y2="0" id="Path-15-Copy-25"></line>
                                    <line x1="587" y1="367" x2="212" y2="0" id="Path-15-Copy-26"></line>
                                    <line x1="534" y1="367" x2="159" y2="0" id="Path-15-Copy-27"></line>
                                    <line x1="481" y1="367" x2="106" y2="0" id="Path-15-Copy-28"></line>
                                    <line x1="428" y1="367" x2="53" y2="0" id="Path-15-Copy-29"></line>
                                    <line x1="375" y1="367" x2="0" y2="0" id="Path-15-Copy-30"></line>
                                </g>
                            </g>
                        </g>
                        <g id="Group-22-Copy">
                            <g id="Grid-3" transform="translate(848.000000, 0.000000)">
                                <g id="Group" transform="translate(0.000000, 41.500000)">
                                    <line x1="0" y1="183.5" x2="1001" y2="183.5" id="Path-16"></line>
                                    <line x1="3.88966637e-13" y1="233.5" x2="1001" y2="233.5" id="Path-16-Copy"></line>
                                    <line x1="3.88966637e-13" y1="283.5" x2="1001" y2="283.5" id="Path-16-Copy-2"></line>
                                    <line x1="0" y1="0.5" x2="1001" y2="0.5" id="Path-16"></line>
                                    <line x1="0" y1="50.5" x2="1001" y2="50.5" id="Path-16-Copy"></line>
                                    <line x1="0" y1="100.5" x2="1001" y2="100.5" id="Path-16-Copy-2"></line>
                                    <line x1="0" y1="142.5" x2="1001" y2="142.5" id="Path-16-Copy-3"></line>
                                </g>
                                <g id="Group-2" transform="translate(-111.000000, 0.000000)">
                                    <line x1="1223" y1="367" x2="848" y2="0" id="Path-15-Copy-9"></line>
                                    <line x1="1170" y1="367" x2="795" y2="0" id="Path-15-Copy-15"></line>
                                    <line x1="1117" y1="367" x2="742" y2="0" id="Path-15-Copy-16"></line>
                                    <line x1="1064" y1="367" x2="689" y2="0" id="Path-15-Copy-17"></line>
                                    <line x1="1011" y1="367" x2="636" y2="0" id="Path-15-Copy-18"></line>
                                    <line x1="958" y1="367" x2="583" y2="0" id="Path-15-Copy-19"></line>
                                    <line x1="905" y1="367" x2="530" y2="0" id="Path-15-Copy-20"></line>
                                    <line x1="852" y1="367" x2="477" y2="0" id="Path-15-Copy-21"></line>
                                    <line x1="799" y1="367" x2="424" y2="0" id="Path-15-Copy-22"></line>
                                    <line x1="746" y1="367" x2="371" y2="0" id="Path-15-Copy-23"></line>
                                    <line x1="693" y1="367" x2="318" y2="0" id="Path-15-Copy-24"></line>
                                    <line x1="640" y1="367" x2="265" y2="0" id="Path-15-Copy-25"></line>
                                    <line x1="587" y1="367" x2="212" y2="0" id="Path-15-Copy-26"></line>
                                    <line x1="534" y1="367" x2="159" y2="0" id="Path-15-Copy-27"></line>
                                    <line x1="481" y1="367" x2="106" y2="0" id="Path-15-Copy-28"></line>
                                    <line x1="428" y1="367" x2="53" y2="0" id="Path-15-Copy-29"></line>
                                    <line x1="375" y1="367" x2="0" y2="0" id="Path-15-Copy-30"></line>
                                </g>
                            </g>
                            <g id="Grid-3" transform="translate(1696.000000, 0.000000)">
                                <g id="Group" transform="translate(0.000000, 41.500000)">
                                    <line x1="0" y1="183.5" x2="1001" y2="183.5" id="Path-16"></line>
                                    <line x1="3.88966637e-13" y1="233.5" x2="1001" y2="233.5" id="Path-16-Copy"></line>
                                    <line x1="3.88966637e-13" y1="283.5" x2="1001" y2="283.5" id="Path-16-Copy-2"></line>
                                    <line x1="0" y1="0.5" x2="1001" y2="0.5" id="Path-16"></line>
                                    <line x1="0" y1="50.5" x2="1001" y2="50.5" id="Path-16-Copy"></line>
                                    <line x1="0" y1="100.5" x2="1001" y2="100.5" id="Path-16-Copy-2"></line>
                                    <line x1="0" y1="142.5" x2="1001" y2="142.5" id="Path-16-Copy-3"></line>
                                </g>
                                <g id="Group-2" transform="translate(-111.000000, 0.000000)">
                                    <line x1="1223" y1="367" x2="848" y2="0" id="Path-15-Copy-9"></line>
                                    <line x1="1170" y1="367" x2="795" y2="0" id="Path-15-Copy-15"></line>
                                    <line x1="1117" y1="367" x2="742" y2="0" id="Path-15-Copy-16"></line>
                                    <line x1="1064" y1="367" x2="689" y2="0" id="Path-15-Copy-17"></line>
                                    <line x1="1011" y1="367" x2="636" y2="0" id="Path-15-Copy-18"></line>
                                    <line x1="958" y1="367" x2="583" y2="0" id="Path-15-Copy-19"></line>
                                    <line x1="905" y1="367" x2="530" y2="0" id="Path-15-Copy-20"></line>
                                    <line x1="852" y1="367" x2="477" y2="0" id="Path-15-Copy-21"></line>
                                    <line x1="799" y1="367" x2="424" y2="0" id="Path-15-Copy-22"></line>
                                    <line x1="746" y1="367" x2="371" y2="0" id="Path-15-Copy-23"></line>
                                    <line x1="693" y1="367" x2="318" y2="0" id="Path-15-Copy-24"></line>
                                    <line x1="640" y1="367" x2="265" y2="0" id="Path-15-Copy-25"></line>
                                    <line x1="587" y1="367" x2="212" y2="0" id="Path-15-Copy-26"></line>
                                    <line x1="534" y1="367" x2="159" y2="0" id="Path-15-Copy-27"></line>
                                    <line x1="481" y1="367" x2="106" y2="0" id="Path-15-Copy-28"></line>
                                    <line x1="428" y1="367" x2="53" y2="0" id="Path-15-Copy-29"></line>
                                    <line x1="375" y1="367" x2="0" y2="0" id="Path-15-Copy-30"></line>
                                </g>
                            </g>
                            <g id="Grid-3">
                                <g id="Group" transform="translate(0.000000, 41.500000)">
                                    <line x1="0" y1="183.5" x2="1001" y2="183.5" id="Path-16"></line>
                                    <line x1="3.88966637e-13" y1="233.5" x2="1001" y2="233.5" id="Path-16-Copy"></line>
                                    <line x1="3.88966637e-13" y1="283.5" x2="1001" y2="283.5" id="Path-16-Copy-2"></line>
                                    <line x1="0" y1="0.5" x2="1001" y2="0.5" id="Path-16"></line>
                                    <line x1="0" y1="50.5" x2="1001" y2="50.5" id="Path-16-Copy"></line>
                                    <line x1="0" y1="100.5" x2="1001" y2="100.5" id="Path-16-Copy-2"></line>
                                    <line x1="0" y1="142.5" x2="1001" y2="142.5" id="Path-16-Copy-3"></line>
                                </g>
                                <g id="Group-2" transform="translate(-111.000000, 0.000000)">
                                    <line x1="1223" y1="367" x2="848" y2="0" id="Path-15-Copy-9"></line>
                                    <line x1="1170" y1="367" x2="795" y2="0" id="Path-15-Copy-15"></line>
                                    <line x1="1117" y1="367" x2="742" y2="0" id="Path-15-Copy-16"></line>
                                    <line x1="1064" y1="367" x2="689" y2="0" id="Path-15-Copy-17"></line>
                                    <line x1="1011" y1="367" x2="636" y2="0" id="Path-15-Copy-18"></line>
                                    <line x1="958" y1="367" x2="583" y2="0" id="Path-15-Copy-19"></line>
                                    <line x1="905" y1="367" x2="530" y2="0" id="Path-15-Copy-20"></line>
                                    <line x1="852" y1="367" x2="477" y2="0" id="Path-15-Copy-21"></line>
                                    <line x1="799" y1="367" x2="424" y2="0" id="Path-15-Copy-22"></line>
                                    <line x1="746" y1="367" x2="371" y2="0" id="Path-15-Copy-23"></line>
                                    <line x1="693" y1="367" x2="318" y2="0" id="Path-15-Copy-24"></line>
                                    <line x1="640" y1="367" x2="265" y2="0" id="Path-15-Copy-25"></line>
                                    <line x1="587" y1="367" x2="212" y2="0" id="Path-15-Copy-26"></line>
                                    <line x1="534" y1="367" x2="159" y2="0" id="Path-15-Copy-27"></line>
                                    <line x1="481" y1="367" x2="106" y2="0" id="Path-15-Copy-28"></line>
                                    <line x1="428" y1="367" x2="53" y2="0" id="Path-15-Copy-29"></line>
                                    <line x1="375" y1="367" x2="0" y2="0" id="Path-15-Copy-30"></line>
                                </g>
                            </g>
                        </g>
                    </g>
                </g>
            </g>
        </g>
    </g>
</svg>