<svg xmlns="http://www.w3.org/2000/svg" width="170" height="40" viewBox="0 0 170 40">
    <defs>
        <filter id="soyfmqkqaa">
            <feColorMatrix in="SourceGraphic" values="0 0 0 0 1.000000 0 0 0 0 1.000000 0 0 0 0 1.000000 0 0 0 1.000000 0"/>
        </filter>
    </defs>
    <g fill="none" fill-rule="evenodd">
        <g filter="url(#soyfmqkqaa)" transform="translate(-236 -67)">
            <g>
                <path fill="#D8D8D8" stroke="#979797" stroke-width=".55" d="M131.518 13.453l.001 17.023h-4.313V13.454l4.312-.001zm10.655-3.93v3.612l-10.337-.001.002-3.61h10.335zM55.843.275v30.201h13.173c1.647 0 3.137-.667 4.216-1.746 1.016-1.015 1.666-2.395 1.74-3.927l.006-.289V13.685h-4.313v12.486l-10.509-.001V13.135h9.959V9.524l-9.959-.001V.275h-4.313zM111.609 13.453v17.023h-4.313V13.454l4.313-.001zm10.654-3.93v3.612l-10.336-.001.001-3.61h10.335zM169.725 9.524v21.218c-.185 2.554-.682 4.275-1.54 5.133-1.591 1.588-3.423 2.017-8.412 2.696-3.21.437-5.73.806-7.563 1.105h0v-3.372l13.201-2.08v-3.748h-13.664v-3.612h13.664V9.525h4.314zm-18.528 17.021h-4.082V9.525h4.082v17.021zM32.14 13.454v17.022H28.06V13.454h4.082zm10.698-3.93c2.472 0 4.685.318 6.163 1.794 1.2 1.197 1.9 3.15 1.9 6.254h0v12.904h-4.314V12.904H32.69v-3.38zM19.034 26.546V9.524h4.082v17.022h-4.082zm-10.696 3.93c-2.473 0-4.686-.318-6.164-1.794-1.2-1.197-1.899-3.15-1.899-6.254h0V9.524h4.314v17.572h13.895v3.38zM102.574 13.41c.375 3.637-1.169 5.949-4.632 6.937-1.621.462-3.528.806-5.79 1.156-1.601.247-4.303.633-8.106 1.156v4.162h17.138v3.93H89.373h0c-4.864 0-9.727-1.85-9.727-7.86v-6.475h0c.309-2.929 1.775-5.087 4.4-6.474 1.191-.63 4.686-.688 7.235-.693h6.893v4.161H84.278v5.318l13.896-2.08V13.41h4.4z" transform="translate(236 67)"/>
            </g>
        </g>
    </g>
</svg>
