<?xml version="1.0" encoding="UTF-8"?>
<svg width="604px" height="399px" viewBox="0 0 604 399" version="1.1" xmlns="http://www.w3.org/2000/svg" xmlns:xlink="http://www.w3.org/1999/xlink">
    <!-- Generator: Sketch 62 (91390) - https://sketch.com -->
    <title>enter2 2</title>
    <desc>Created with Sketch.</desc>
    <defs>
        <rect id="path-1" x="0" y="0" width="636" height="239.917"></rect>
        <rect id="path-3" x="0" y="0" width="636" height="239.917"></rect>
        <rect id="path-5" x="0" y="0" width="636" height="239.917"></rect>
        <rect id="path-7" x="0" y="0" width="636" height="239.917"></rect>
    </defs>
    <g id="Page-1" stroke="none" stroke-width="1" fill="none" fill-rule="evenodd">
        <g id="enter2-2" transform="translate(1.000000, -31.000000)">
            <g id="enter2">
                <g id="Group-24" transform="translate(0.000000, 273.000000)">
                    <g id="Group-14" transform="translate(148.709361, 86.315976)">
                        <path d="M9.84531917,-3.97762678e-16 L179.93987,-3.97762678e-16 C183.363301,-3.97762678e-16 184.604721,0.356450347 185.856276,1.02578958 C187.107832,1.69512882 188.09006,2.67735694 188.759399,3.9289125 C189.428738,5.18046805 189.785189,6.42188721 189.785189,9.84531917 L189.785189,59.8387045 C189.785189,63.2621365 189.428738,64.5035556 188.759399,65.7551112 C188.09006,67.0066667 187.107832,67.9888949 185.856276,68.6582341 C184.604721,69.3275733 183.363301,69.6840237 179.93987,69.6840237 L9.84531917,69.6840237 C6.42188721,69.6840237 5.18046805,69.3275733 3.9289125,68.6582341 C2.67735694,67.9888949 1.69512882,67.0066667 1.02578958,65.7551112 C0.356450347,64.5035556 -3.43909461e-15,63.2621365 -3.43909461e-15,59.8387045 L-3.43909461e-15,9.84531917 C-3.43909461e-15,6.42188721 0.356450347,5.18046805 1.02578958,3.9289125 C1.69512882,2.67735694 2.67735694,1.69512882 3.9289125,1.02578958 C5.18046805,0.356450347 6.42188721,-3.97762678e-16 9.84531917,-3.97762678e-16 Z" id="Rectangle-Copy-4" stroke="#979797" stroke-width="0.96" opacity="0.300000012"></path>
                        <g id="Group-9" transform="translate(18.115859, 17.205932)">
                            <g id="Group-3" transform="translate(0.034506, 20.940194)" fill-rule="nonzero">
                                <path d="M2.58088977,4.44118635 L150.972581,4.44118635 C152.397967,4.44118635 153.553471,5.59669006 153.553471,7.02207612 C153.553471,8.44746218 152.397967,9.60296589 150.972581,9.60296589 L2.58088977,9.60296589 C1.15550371,9.60296589 0,8.44746218 0,7.02207612 C0,5.59669006 1.15550371,4.44118635 2.58088977,4.44118635 Z" id="Rectangle-Copy-2" stroke="#979797" fill="#34343A"></path>
                                <ellipse id="Oval-Copy" stroke="#F9F9F9" fill="#9CD27F" cx="118.615743" cy="7.02207612" rx="6.51861964" ry="6.50207612"></ellipse>
                            </g>
                            <g id="Group-3" fill="#566371">
                                <g id="Concept-grasping" transform="translate(16.000000, 0.000000)" font-family="Helvetica" font-size="14" font-weight="normal">
                                    <text>
                                        <tspan x="0.563071" y="14">Concept grasping</tspan>
                                    </text>
                                </g>
                                <path d="M6.9996062,0.9216 C4.00965566,0.9216 1.57725246,3.65093642 1.57725246,7.00588219 L1.57725246,7.37454485 L0.0306079322,10.6154633 C-0.0123067327,10.7050287 -0.0099035115,10.813085 0.0366159853,10.900339 C0.0831354821,10.987593 0.167076567,11.0407544 0.25754068,11.0407544 L1.57725246,11.0407544 L1.57725246,13.2425218 C1.57725246,14.2312081 2.29409902,15.035563 3.17522292,15.035563 L5.44128889,15.035563 L5.44128889,16.2998794 C5.44128889,16.3765397 5.46841095,16.4501181 5.5168187,16.5042426 C5.56505478,16.5587523 5.63045673,16.5888 5.69877688,16.5888 L5.69946351,16.5888 L10.6222906,16.5888 C10.7640806,16.5884148 10.8790919,16.4433766 10.8790919,16.2842777 L10.8790919,11.2512812 C11.8752271,10.1096597 12.4223033,8.60688744 12.4223033,7.00588219 C12.4223033,3.65093642 9.98955673,0.9216 6.9996062,0.9216 Z M3.59921981,8.39616803 C3.26671699,8.39616803 2.99721289,8.09357187 2.99721289,7.72067171 C2.99721289,7.34738632 3.26671699,7.04498278 3.59921981,7.04498278 C3.93189429,7.04498278 4.20139839,7.34738632 4.20139839,7.72067171 C4.20139839,8.09337926 3.93189429,8.39616803 3.59921981,8.39616803 Z M9.04285923,8.43045327 C8.96629946,8.43045327 8.88699316,8.42563792 8.80614193,8.41774076 C8.69507878,8.77638751 8.71911099,9.2072644 8.8590128,9.52122477 C8.8590128,9.52122477 8.52290515,9.80205557 8.12242549,9.69765893 C8.12242549,9.69765893 7.46102468,9.17066779 7.54324917,8.03752128 C7.06123166,7.79463538 6.72134751,7.49569888 6.43399092,7.241834 C6.15298569,6.9933623 5.93103104,6.79708892 5.66324353,6.72119911 C5.47716555,6.66861557 5.26671203,6.62951498 5.06346818,6.59214792 C4.45287832,6.47927628 3.82168943,6.36274498 3.51716697,5.83787259 C3.33383552,5.52179348 3.30259365,5.11788251 3.42120978,4.60302603 C3.78958926,3.0077992 5.55527024,2.0545539 7.04921555,2.0545539 C7.23872671,2.0545539 7.42343143,2.07034823 7.59749331,2.10116642 C9.92672967,2.51528592 11.198377,4.52424702 11.0406227,6.1481733 C10.9886101,6.68344683 10.6902674,8.43045327 9.04285923,8.43045327 Z" id="Shape" fill-rule="nonzero" opacity="0.400000006"></path>
                            </g>
                        </g>
                    </g>
                    <g id="Group-14-Copy-2" transform="translate(354.505188, 86.315976)">
                        <path d="M9.84531917,-3.97762678e-16 L179.93987,-3.97762678e-16 C183.363301,-3.97762678e-16 184.604721,0.356450347 185.856276,1.02578958 C187.107832,1.69512882 188.09006,2.67735694 188.759399,3.9289125 C189.428738,5.18046805 189.785189,6.42188721 189.785189,9.84531917 L189.785189,59.8387045 C189.785189,63.2621365 189.428738,64.5035556 188.759399,65.7551112 C188.09006,67.0066667 187.107832,67.9888949 185.856276,68.6582341 C184.604721,69.3275733 183.363301,69.6840237 179.93987,69.6840237 L9.84531917,69.6840237 C6.42188721,69.6840237 5.18046805,69.3275733 3.9289125,68.6582341 C2.67735694,67.9888949 1.69512882,67.0066667 1.02578958,65.7551112 C0.356450347,64.5035556 7.80692141e-13,63.2621365 7.80692141e-13,59.8387045 L7.80692141e-13,9.84531917 C7.80692141e-13,6.42188721 0.356450347,5.18046805 1.02578958,3.9289125 C1.69512882,2.67735694 2.67735694,1.69512882 3.9289125,1.02578958 C5.18046805,0.356450347 6.42188721,-3.97762678e-16 9.84531917,-3.97762678e-16 Z" id="Rectangle-Copy-4" stroke="#979797" stroke-width="0.96" opacity="0.300000012"></path>
                        <g id="Group-9" transform="translate(9.952563, 16.644386)">
                            <g id="Group-3" transform="translate(0.000000, 23.228008)" fill-rule="nonzero">
                                <path d="M2.58088977,4.44118635 L150.972581,4.44118635 C152.397967,4.44118635 153.553471,5.59669006 153.553471,7.02207612 C153.553471,8.44746218 152.397967,9.60296589 150.972581,9.60296589 L2.58088977,9.60296589 C1.15550371,9.60296589 0,8.44746218 0,7.02207612 C0,5.59669006 1.15550371,4.44118635 2.58088977,4.44118635 Z" id="Rectangle-Copy-2" stroke="#979797" fill="#34343A"></path>
                                <ellipse id="Oval-Copy" stroke="#F9F9F9" fill="#9CD27F" cx="118.615743" cy="7.02207612" rx="6.51861964" ry="6.50207612"></ellipse>
                            </g>
                            <g id="Group-3" fill="#566371">
                                <text id="Concept-grasping" font-family="Helvetica" font-size="14" font-weight="normal">
                                    <tspan x="16.563071" y="14">Concept grasping</tspan>
                                </text>
                                <path d="M6.9996062,1.9216 C4.00965566,1.9216 1.57725246,4.65093642 1.57725246,8.00588219 L1.57725246,8.37454485 L0.0306079322,11.6154633 C-0.0123067327,11.7050287 -0.0099035115,11.813085 0.0366159853,11.900339 C0.0831354821,11.987593 0.167076567,12.0407544 0.25754068,12.0407544 L1.57725246,12.0407544 L1.57725246,14.2425218 C1.57725246,15.2312081 2.29409902,16.035563 3.17522292,16.035563 L5.44128889,16.035563 L5.44128889,17.2998794 C5.44128889,17.3765397 5.46841095,17.4501181 5.5168187,17.5042426 C5.56505478,17.5587523 5.63045673,17.5888 5.69877688,17.5888 L5.69946351,17.5888 L10.6222906,17.5888 C10.7640806,17.5884148 10.8790919,17.4433766 10.8790919,17.2842777 L10.8790919,12.2512812 C11.8752271,11.1096597 12.4223033,9.60688744 12.4223033,8.00588219 C12.4223033,4.65093642 9.98955673,1.9216 6.9996062,1.9216 Z M3.59921981,9.39616803 C3.26671699,9.39616803 2.99721289,9.09357187 2.99721289,8.72067171 C2.99721289,8.34738632 3.26671699,8.04498278 3.59921981,8.04498278 C3.93189429,8.04498278 4.20139839,8.34738632 4.20139839,8.72067171 C4.20139839,9.09337926 3.93189429,9.39616803 3.59921981,9.39616803 Z M9.04285923,9.43045327 C8.96629946,9.43045327 8.88699316,9.42563792 8.80614193,9.41774076 C8.69507878,9.77638751 8.71911099,10.2072644 8.8590128,10.5212248 C8.8590128,10.5212248 8.52290515,10.8020556 8.12242549,10.6976589 C8.12242549,10.6976589 7.46102468,10.1706678 7.54324917,9.03752128 C7.06123166,8.79463538 6.72134751,8.49569888 6.43399092,8.241834 C6.15298569,7.9933623 5.93103104,7.79708892 5.66324353,7.72119911 C5.47716555,7.66861557 5.26671203,7.62951498 5.06346818,7.59214792 C4.45287832,7.47927628 3.82168943,7.36274498 3.51716697,6.83787259 C3.33383552,6.52179348 3.30259365,6.11788251 3.42120978,5.60302603 C3.78958926,4.0077992 5.55527024,3.0545539 7.04921555,3.0545539 C7.23872671,3.0545539 7.42343143,3.07034823 7.59749331,3.10116642 C9.92672967,3.51528592 11.198377,5.52424702 11.0406227,7.1481733 C10.9886101,7.68344683 10.6902674,9.43045327 9.04285923,9.43045327 Z" id="Shape" fill-rule="nonzero" opacity="0.5"></path>
                            </g>
                        </g>
                    </g>
                    <g id="Group-14-Copy-3">
                        <path d="M9.84531917,-7.29499635e-15 L179.93987,-7.29499635e-15 C183.363301,-7.29499635e-15 184.604721,0.356450347 185.856276,1.02578958 C187.107832,1.69512882 188.09006,2.67735694 188.759399,3.9289125 C189.428738,5.18046805 189.785189,6.42188721 189.785189,9.84531917 L189.785189,59.8387045 C189.785189,63.2621365 189.428738,64.5035556 188.759399,65.7551112 C188.09006,67.0066667 187.107832,67.9888949 185.856276,68.6582341 C184.604721,69.3275733 183.363301,69.6840237 179.93987,69.6840237 L9.84531917,69.6840237 C6.42188721,69.6840237 5.18046805,69.3275733 3.9289125,68.6582341 C2.67735694,67.9888949 1.69512882,67.0066667 1.02578958,65.7551112 C0.356450347,64.5035556 7.80692141e-13,63.2621365 7.80692141e-13,59.8387045 L7.80692141e-13,9.84531917 C7.80692141e-13,6.42188721 0.356450347,5.18046805 1.02578958,3.9289125 C1.69512882,2.67735694 2.67735694,1.69512882 3.9289125,1.02578958 C5.18046805,0.356450347 6.42188721,-7.29499635e-15 9.84531917,-7.29499635e-15 Z" id="Rectangle-Copy-4" stroke="#979797" stroke-width="0.96" opacity="0.300000012"></path>
                        <g id="Group-9" transform="translate(9.952563, 16.644386)">
                            <g id="Group-3" transform="translate(0.000000, 23.228008)" fill-rule="nonzero">
                                <path d="M2.58088977,4.44118635 L150.972581,4.44118635 C152.397967,4.44118635 153.553471,5.59669006 153.553471,7.02207612 C153.553471,8.44746218 152.397967,9.60296589 150.972581,9.60296589 L2.58088977,9.60296589 C1.15550371,9.60296589 0,8.44746218 0,7.02207612 C0,5.59669006 1.15550371,4.44118635 2.58088977,4.44118635 Z" id="Rectangle-Copy-2" stroke="#979797" fill="#34343A"></path>
                                <ellipse id="Oval-Copy" stroke="#F9F9F9" fill="#9CD27F" cx="118.615743" cy="7.02207612" rx="6.51861964" ry="6.50207612"></ellipse>
                            </g>
                            <g id="Group-3" fill="#566371">
                                <text id="Concept-grasping" font-family="Helvetica" font-size="14" font-weight="normal">
                                    <tspan x="16.563071" y="14">Concept grasping</tspan>
                                </text>
                                <path d="M6.9996062,1.9216 C4.00965566,1.9216 1.57725246,4.65093642 1.57725246,8.00588219 L1.57725246,8.37454485 L0.0306079322,11.6154633 C-0.0123067327,11.7050287 -0.0099035115,11.813085 0.0366159853,11.900339 C0.0831354821,11.987593 0.167076567,12.0407544 0.25754068,12.0407544 L1.57725246,12.0407544 L1.57725246,14.2425218 C1.57725246,15.2312081 2.29409902,16.035563 3.17522292,16.035563 L5.44128889,16.035563 L5.44128889,17.2998794 C5.44128889,17.3765397 5.46841095,17.4501181 5.5168187,17.5042426 C5.56505478,17.5587523 5.63045673,17.5888 5.69877688,17.5888 L5.69946351,17.5888 L10.6222906,17.5888 C10.7640806,17.5884148 10.8790919,17.4433766 10.8790919,17.2842777 L10.8790919,12.2512812 C11.8752271,11.1096597 12.4223033,9.60688744 12.4223033,8.00588219 C12.4223033,4.65093642 9.98955673,1.9216 6.9996062,1.9216 Z M3.59921981,9.39616803 C3.26671699,9.39616803 2.99721289,9.09357187 2.99721289,8.72067171 C2.99721289,8.34738632 3.26671699,8.04498278 3.59921981,8.04498278 C3.93189429,8.04498278 4.20139839,8.34738632 4.20139839,8.72067171 C4.20139839,9.09337926 3.93189429,9.39616803 3.59921981,9.39616803 Z M9.04285923,9.43045327 C8.96629946,9.43045327 8.88699316,9.42563792 8.80614193,9.41774076 C8.69507878,9.77638751 8.71911099,10.2072644 8.8590128,10.5212248 C8.8590128,10.5212248 8.52290515,10.8020556 8.12242549,10.6976589 C8.12242549,10.6976589 7.46102468,10.1706678 7.54324917,9.03752128 C7.06123166,8.79463538 6.72134751,8.49569888 6.43399092,8.241834 C6.15298569,7.9933623 5.93103104,7.79708892 5.66324353,7.72119911 C5.47716555,7.66861557 5.26671203,7.62951498 5.06346818,7.59214792 C4.45287832,7.47927628 3.82168943,7.36274498 3.51716697,6.83787259 C3.33383552,6.52179348 3.30259365,6.11788251 3.42120978,5.60302603 C3.78958926,4.0077992 5.55527024,3.0545539 7.04921555,3.0545539 C7.23872671,3.0545539 7.42343143,3.07034823 7.59749331,3.10116642 C9.92672967,3.51528592 11.198377,5.52424702 11.0406227,7.1481733 C10.9886101,7.68344683 10.6902674,9.43045327 9.04285923,9.43045327 Z" id="Shape" fill-rule="nonzero" opacity="0.5"></path>
                            </g>
                        </g>
                    </g>
                    <g id="Group-14-Copy-4" transform="translate(412.214811, 0.000000)">
                        <path d="M9.84531917,-3.97762678e-16 L179.93987,-3.97762678e-16 C183.363301,-3.97762678e-16 184.604721,0.356450347 185.856276,1.02578958 C187.107832,1.69512882 188.09006,2.67735694 188.759399,3.9289125 C189.428738,5.18046805 189.785189,6.42188721 189.785189,9.84531917 L189.785189,59.8387045 C189.785189,63.2621365 189.428738,64.5035556 188.759399,65.7551112 C188.09006,67.0066667 187.107832,67.9888949 185.856276,68.6582341 C184.604721,69.3275733 183.363301,69.6840237 179.93987,69.6840237 L9.84531917,69.6840237 C6.42188721,69.6840237 5.18046805,69.3275733 3.9289125,68.6582341 C2.67735694,67.9888949 1.69512882,67.0066667 1.02578958,65.7551112 C0.356450347,64.5035556 7.80692141e-13,63.2621365 7.80692141e-13,59.8387045 L7.80692141e-13,9.84531917 C7.80692141e-13,6.42188721 0.356450347,5.18046805 1.02578958,3.9289125 C1.69512882,2.67735694 2.67735694,1.69512882 3.9289125,1.02578958 C5.18046805,0.356450347 6.42188721,-3.97762678e-16 9.84531917,-3.97762678e-16 Z" id="Rectangle-Copy-4" stroke="#979797" stroke-width="0.96" opacity="0.300000012"></path>
                        <g id="Group-9" transform="translate(9.952563, 16.644386)">
                            <g id="Group-3" transform="translate(0.000000, 23.228008)" fill-rule="nonzero">
                                <path d="M2.58088977,4.44118635 L150.972581,4.44118635 C152.397967,4.44118635 153.553471,5.59669006 153.553471,7.02207612 C153.553471,8.44746218 152.397967,9.60296589 150.972581,9.60296589 L2.58088977,9.60296589 C1.15550371,9.60296589 0,8.44746218 0,7.02207612 C0,5.59669006 1.15550371,4.44118635 2.58088977,4.44118635 Z" id="Rectangle-Copy-2" stroke="#979797" fill="#34343A"></path>
                                <ellipse id="Oval-Copy" stroke="#F9F9F9" fill="#9CD27F" cx="118.615743" cy="7.02207612" rx="6.51861964" ry="6.50207612"></ellipse>
                            </g>
                            <g id="Group-3" fill="#566371">
                                <text id="Concept-grasping" font-family="Helvetica" font-size="14" font-weight="normal">
                                    <tspan x="16.563071" y="14">Concept grasping</tspan>
                                </text>
                                <path d="M6.9996062,1.9216 C4.00965566,1.9216 1.57725246,4.65093642 1.57725246,8.00588219 L1.57725246,8.37454485 L0.0306079322,11.6154633 C-0.0123067327,11.7050287 -0.0099035115,11.813085 0.0366159853,11.900339 C0.0831354821,11.987593 0.167076567,12.0407544 0.25754068,12.0407544 L1.57725246,12.0407544 L1.57725246,14.2425218 C1.57725246,15.2312081 2.29409902,16.035563 3.17522292,16.035563 L5.44128889,16.035563 L5.44128889,17.2998794 C5.44128889,17.3765397 5.46841095,17.4501181 5.5168187,17.5042426 C5.56505478,17.5587523 5.63045673,17.5888 5.69877688,17.5888 L5.69946351,17.5888 L10.6222906,17.5888 C10.7640806,17.5884148 10.8790919,17.4433766 10.8790919,17.2842777 L10.8790919,12.2512812 C11.8752271,11.1096597 12.4223033,9.60688744 12.4223033,8.00588219 C12.4223033,4.65093642 9.98955673,1.9216 6.9996062,1.9216 Z M3.59921981,9.39616803 C3.26671699,9.39616803 2.99721289,9.09357187 2.99721289,8.72067171 C2.99721289,8.34738632 3.26671699,8.04498278 3.59921981,8.04498278 C3.93189429,8.04498278 4.20139839,8.34738632 4.20139839,8.72067171 C4.20139839,9.09337926 3.93189429,9.39616803 3.59921981,9.39616803 Z M9.04285923,9.43045327 C8.96629946,9.43045327 8.88699316,9.42563792 8.80614193,9.41774076 C8.69507878,9.77638751 8.71911099,10.2072644 8.8590128,10.5212248 C8.8590128,10.5212248 8.52290515,10.8020556 8.12242549,10.6976589 C8.12242549,10.6976589 7.46102468,10.1706678 7.54324917,9.03752128 C7.06123166,8.79463538 6.72134751,8.49569888 6.43399092,8.241834 C6.15298569,7.9933623 5.93103104,7.79708892 5.66324353,7.72119911 C5.47716555,7.66861557 5.26671203,7.62951498 5.06346818,7.59214792 C4.45287832,7.47927628 3.82168943,7.36274498 3.51716697,6.83787259 C3.33383552,6.52179348 3.30259365,6.11788251 3.42120978,5.60302603 C3.78958926,4.0077992 5.55527024,3.0545539 7.04921555,3.0545539 C7.23872671,3.0545539 7.42343143,3.07034823 7.59749331,3.10116642 C9.92672967,3.51528592 11.198377,5.52424702 11.0406227,7.1481733 C10.9886101,7.68344683 10.6902674,9.43045327 9.04285923,9.43045327 Z" id="Shape" fill-rule="nonzero" opacity="0.5"></path>
                            </g>
                        </g>
                    </g>
                    <g id="Group-15-Copy-2" opacity="0.854742141" transform="translate(205.976956, 0.000000)">
                        <path d="M9.84531917,-7.29499635e-15 L179.93987,-7.29499635e-15 C183.363301,-7.29499635e-15 184.604721,0.356450347 185.856276,1.02578958 C187.107832,1.69512882 188.09006,2.67735694 188.759399,3.9289125 C189.428738,5.18046805 189.785189,6.42188721 189.785189,9.84531917 L189.785189,59.8387045 C189.785189,63.2621365 189.428738,64.5035556 188.759399,65.7551112 C188.09006,67.0066667 187.107832,67.9888949 185.856276,68.6582341 C184.604721,69.3275733 183.363301,69.6840237 179.93987,69.6840237 L9.84531917,69.6840237 C6.42188721,69.6840237 5.18046805,69.3275733 3.9289125,68.6582341 C2.67735694,67.9888949 1.69512882,67.0066667 1.02578958,65.7551112 C0.356450347,64.5035556 -3.89251168e-15,63.2621365 -3.89251168e-15,59.8387045 L-3.89251168e-15,9.84531917 C-3.89251168e-15,6.42188721 0.356450347,5.18046805 1.02578958,3.9289125 C1.69512882,2.67735694 2.67735694,1.69512882 3.9289125,1.02578958 C5.18046805,0.356450347 6.42188721,-7.29499635e-15 9.84531917,-7.29499635e-15 Z" id="Rectangle" stroke="#979797" stroke-width="0.96" opacity="0.300000012"></path>
                        <g id="Group-6" transform="translate(17.891887, 17.309788)">
                            <g id="Group-2" transform="translate(0.480131, 21.263855)" fill-rule="nonzero">
                                <path d="M2.58088977,4.44118635 L150.972581,4.44118635 C152.397967,4.44118635 153.553471,5.59669006 153.553471,7.02207612 C153.553471,8.44746218 152.397967,9.60296589 150.972581,9.60296589 L2.58088977,9.60296589 C1.15550371,9.60296589 0,8.44746218 0,7.02207612 C0,5.59669006 1.15550371,4.44118635 2.58088977,4.44118635 Z" id="Rectangle" stroke="#979797" fill="#34343A"></path>
                                <ellipse id="Oval" stroke="#F9F9F9" fill="#9CD27F" cx="69.4441259" cy="7.02207612" rx="6.51861964" ry="6.50207612"></ellipse>
                            </g>
                            <g id="Group-2" fill="#566371">
                                <g id="Problem-solving" transform="translate(17.000000, 0.000000)" font-family="Helvetica" font-size="14" font-weight="normal">
                                    <text>
                                        <tspan x="0.8368496" y="14">Problem solving</tspan>
                                    </text>
                                </g>
                                <path d="M14.4781807,9.80885375 C14.3218166,9.04073806 13.7778006,8.44779575 13.0723475,8.27658637 C12.5525934,8.14958436 12.0010829,8.26306963 11.5477167,8.59031226 C11.3795195,8.7245396 11.159481,8.74781078 10.9771546,8.65065467 C10.7948281,8.55349857 10.6806105,8.3521126 10.6809869,8.12845875 L10.7235686,5.25084459 L8.0798864,5.2934272 C7.87567083,5.29682069 7.68997838,5.1769686 7.59740284,4.98201625 C7.5048273,4.78706389 7.5205608,4.54900399 7.63828311,4.36346663 C8.07905282,3.65549395 8.09831497,2.74279199 7.68727291,2.0421732 C7.27623086,1.34155441 6.51377011,0.987478716 5.74809104,1.14164529 C4.98241196,1.29581187 4.36046057,1.9286337 4.16626943,2.75111389 C4.03347268,3.32105602 4.12073495,3.91814326 4.40750459,4.40175223 C4.52570055,4.58075573 4.54029962,4.81965975 4.44535909,5.02121567 C4.35041856,5.22277158 4.16176987,5.35336973 3.95620463,5.35984863 L1.31251129,5.40243142 L1.16092749,15.6462464 L3.80954227,15.6035843 C4.01510751,15.5971054 4.20375619,15.4665073 4.29869672,15.2649513 C4.39363725,15.0633954 4.37903818,14.8244914 4.26084223,14.6454879 C3.97407258,14.1618789 3.88681032,13.5647917 4.01960706,12.9948496 C4.21409613,12.1727836 4.83596512,11.5404543 5.60136461,11.3864857 C6.36676411,11.2325172 7.12889475,11.5864396 7.5398853,12.2867066 C7.95087584,12.9869736 7.9319006,13.899278 7.49162074,14.6072023 C7.37389844,14.7927397 7.35816493,15.0307996 7.45074048,15.2257519 C7.54331602,15.4207043 7.72900846,15.5405564 7.93322404,15.5371629 L10.5719848,15.4946595 L10.6145666,12.6170454 C10.6177568,12.3947693 10.7336542,12.1888524 10.9157021,12.0820127 C11.09775,11.9751731 11.3160734,11.9849436 11.4829704,12.1073994 C12.1399764,12.5791712 13.0080534,12.5552817 13.6701173,12.0472092 C14.3321813,11.5391367 14.652901,10.650735 14.4781807,9.80885375 L14.4781807,9.80885375 Z" id="puzzle" fill-rule="nonzero" opacity="0.5" transform="translate(7.843101, 8.376117) rotate(-10.000000) translate(-7.843101, -8.376117) "></path>
                            </g>
                        </g>
                    </g>
                </g>
                <g id="Group-17">
                    <g id="Path-5-+-Path-5-Mask">
                        <g id="Group-7-+-Path-4-+-Path-4-Mask-Clipped">
                            <mask id="mask-2" fill="white">
                                <use xlink:href="#path-1"></use>
                            </mask>
                            <g id="path-2"></g>
                        </g>
                        <g id="Path-5-Clipped">
                            <mask id="mask-4" fill="white">
                                <use xlink:href="#path-3"></use>
                            </mask>
                            <g id="path-2"></g>
                            <path d="M6,134.904943 C20.7342495,135.670935 30.7326383,131.306078 35.9951664,121.810371 C43.8889585,107.566811 52.0737422,51.9381684 67.5563299,51.9381684 C92.7563299,51.9381684 116.718904,190.479119 159.811515,190.479119 C202.904126,190.479119 203.867125,104.032751 224.50305,104.032751 C245.138976,104.032751 244.176577,175.724455 276.231596,175.724455 C308.286615,175.724455 315.436656,45.5167917 341.028797,45.5167917 C366.620939,45.5167917 358.466615,129.605088 391.510108,129.605088 C424.553601,129.605088 466.972637,134.904943 493.826435,134.904943 C520.680232,134.904943 520.680232,41.985475 537.260596,41.985475 C553.84096,41.985475 561.482894,158.884653 578.663276,158.884653 C578.663276,173.301516 578.663276,196.796854 578.663276,229.370667 L6,229.370667 L6,134.904943 Z" id="Path-5" opacity="0.21891276" mask="url(#mask-4)"></path>
                        </g>
                        <g id="Path-5-Clipped">
                            <mask id="mask-6" fill="white">
                                <use xlink:href="#path-5"></use>
                            </mask>
                            <g id="path-2"></g>
                            <path d="M6,134.904943 C20.7342495,135.670935 30.7326383,131.306078 35.9951664,121.810371 C43.8889585,107.566811 52.0737422,51.9381684 67.5563299,51.9381684 C92.7563299,51.9381684 116.718904,190.479119 159.811515,190.479119 C202.904126,190.479119 203.867125,104.032751 224.50305,104.032751 C245.138976,104.032751 244.176577,175.724455 276.231596,175.724455 C308.286615,175.724455 315.436656,45.5167917 341.028797,45.5167917 C366.620939,45.5167917 358.466615,129.605088 391.510108,129.605088 C424.553601,129.605088 466.972637,134.904943 493.826435,134.904943 C520.680232,134.904943 520.680232,41.985475 537.260596,41.985475 C553.84096,41.985475 561.482894,158.884653 578.663276,158.884653" id="Path-5" stroke="#9CD27F" stroke-linecap="round" mask="url(#mask-6)"></path>
                        </g>
                        <g id="Path-5-Copy-Clipped">
                            <mask id="mask-8" fill="white">
                                <use xlink:href="#path-7"></use>
                            </mask>
                            <g id="path-2"></g>
                            <path d="M-78.946136,140.371045 L-1.20574864,143.435224 C5.41029747,143.695999 10.9783115,142.543485 15.4926874,139.957804 C19.9916545,137.380948 23.4365181,133.381293 25.8381961,127.969131 C28.3462342,122.317288 30.8797145,111.210524 33.6945566,98.8976824 C37.0260021,84.3250844 40.7452699,68.0699013 45.2492855,57.0957563 C46.9431489,52.9686166 48.7522053,49.5831412 50.6867712,47.2940059 C52.5350835,45.1069329 54.5077534,43.9158134 56.5881988,43.9158134 C58.8548942,43.9158134 61.1335235,45.2597339 63.40584,47.7961677 C65.7593753,50.4232606 68.1224166,54.332802 70.5043746,59.2288893 C76.5625265,71.6813511 82.7727634,90.5529093 89.4286494,110.786463 C93.6768168,123.700676 98.1075787,137.170306 102.798816,149.875563 L-78.946136,140.371045 Z M168.180501,197.14304 C162.153765,205.568767 154.697657,210.985475 145.136407,210.985475 C137.364737,210.985475 130.19332,205.280425 123.554772,195.855099 C115.451615,184.350339 108.121262,167.327378 101.337092,148.797754 L186.402193,153.246311 C181.740214,169.206445 176.24284,185.871423 168.180501,197.14304 Z M185.086734,154.178884 C186.043331,150.927635 186.963795,147.699422 187.862942,144.545983 C191.20252,132.833608 194.252918,122.150977 197.759768,115.127664 C199.161681,112.319995 200.641186,110.09077 202.233206,108.592671 C203.779158,107.137923 205.435831,106.361824 207.228523,106.361824 C209.151599,106.361824 210.896222,107.11232 212.496758,108.497205 C214.166732,109.942172 215.682541,112.088558 217.084718,114.775146 C220.620143,121.549063 223.458728,131.794707 226.462343,142.65744 C227.732387,147.250621 229.032914,151.954232 230.430534,156.55018 L185.086734,154.178884 Z M268.987447,184.661228 C265.361833,190.169132 261.345342,193.298992 256.878524,193.298992 C250.596557,193.298992 245.584532,189.83239 241.448695,184.225228 C236.202584,177.112814 232.36961,166.544059 229.062717,155.477282 L280.048199,158.143614 C276.730567,169.106166 273.102049,178.410471 268.987447,184.661228 Z M278.717972,159.075415 C283.332927,144.1074 287.348153,125.861822 291.262953,108.075572 C295.914232,86.9432473 300.425727,66.4586126 305.624055,52.8610489 C307.647656,47.567799 309.780002,43.3117275 312.058332,40.4471573 C314.249432,37.692264 316.587001,36.2184802 319.07206,36.2184802 C321.538781,36.2184802 323.699669,37.1752598 325.613624,38.9228284 C327.632331,40.7660427 329.377391,43.5021449 330.916891,46.9117582 C334.833434,55.5859401 337.444928,68.6599153 340.143511,82.2028326 C343.221047,97.6475448 346.412411,113.70629 351.842382,124.463247 C353.86626,128.472617 356.198633,131.740574 358.964992,133.940593 C361.441747,135.910296 364.266441,137.015499 367.524942,137.015499 C384.218448,137.015499 403.40295,138.773249 421.593521,140.440696 C437.961331,141.941059 453.522904,143.368459 465.730018,143.368459 C468.464516,143.368459 470.883917,142.035228 473.060505,139.70559 C475.541341,137.050311 477.703135,133.112333 479.634691,128.303108 C484.852609,115.31144 488.359079,96.001039 491.611526,78.1139254 C494.129967,64.2635408 496.496506,51.2629853 499.373254,42.675655 C500.509949,39.2825272 501.731097,36.571166 503.064932,34.7480456 C504.39592,32.9288165 505.850887,31.985475 507.418918,31.985475 C508.309404,31.985475 509.184196,32.3541786 510.033681,33.0906011 C510.839731,33.7893694 511.629581,34.82835 512.396542,36.1766176 C513.984452,38.9680602 515.494214,43.1127194 516.94121,48.2433627 C520.689393,61.5333706 524.041196,81.4817971 527.408705,101.532482 C530.792692,121.681282 534.192633,141.933531 538.033966,155.60867 C539.489047,160.788753 541.004275,165.019453 542.610057,167.928873 C543.972633,170.397642 545.370382,171.939018 546.90643,172.099888 L565.990933,174.098617 L278.717972,159.075415 Z M-1.19932884,143.435518 L-1.24513359,144.434448 C-1.6682604,144.41777 -2.09557721,144.395425 -2.52708384,144.367409 L-2.4685767,143.369142 L-1.19932884,143.435518 Z" id="Path-5-Copy" stroke="#FFFFFF" mask="url(#mask-8)"></path>
                        </g>
                    </g>
                    <text id="Killing-it!" fill="#FFFFFF" font-family="Menlo-Regular, Menlo" font-size="14" font-weight="normal">
                        <tspan x="82.2698676" y="50.1816017">Killing it!</tspan>
                    </text>
                    <text id="Grasping" fill="#FFFFFF" font-family="Menlo-Regular, Menlo" font-size="14" font-weight="normal">
                        <tspan x="171.6" y="209.129727">Grasping</tspan>
                    </text>
                    <text id="Killing-it!" fill="#FFFFFF" font-family="Menlo-Regular, Menlo" font-size="14" font-weight="normal">
                        <tspan x="362.6" y="50.9840917">Killing it!</tspan>
                    </text>
                    <text id="Stuck" fill="#FFFFFF" font-family="Menlo-Regular, Menlo" font-size="14" font-weight="normal">
                        <tspan x="471.6" y="158.747157">Stuck</tspan>
                    </text>
                </g>
            </g>
        </g>
    </g>
</svg>