<?xml version="1.0" encoding="UTF-8"?>
<svg width="150px" height="39px" viewBox="0 0 150 39" version="1.1" xmlns="http://www.w3.org/2000/svg" xmlns:xlink="http://www.w3.org/1999/xlink">
    <!-- Generator: Sketch 62 (91390) - https://sketch.com -->
    <title>Group 7</title>
    <desc>Created with Sketch.</desc>
    <defs>
        <polygon id="path-1" points="0 0 50 0 50 31 0 31"></polygon>
        <polygon id="path-3" points="0 0 97 0 97 38 0 38"></polygon>
    </defs>
    <g id="Editted" stroke="none" stroke-width="1" fill="none" fill-rule="evenodd">
        <g id="Unberry-Landing-Copy-2" transform="translate(-236.000000, -67.000000)">
            <g id="Group-7" transform="translate(236.000000, 67.000000)">
                <g id="Group-3">
                    <mask id="mask-2" fill="white">
                        <use xlink:href="#path-1"></use>
                    </mask>
                    <g id="Clip-2"></g>
                    <path d="M35.2674728,30.471962 L35.2674728,17.4849205 C35.2674728,14.5497647 37.0068491,12.5222956 39.7521235,12.5222956 C42.4973979,12.5222956 43.8805721,14.21181 43.8805721,17.1682013 L43.8805721,30.471962 L50,30.471962 L50,15.880089 C50,10.5797683 47.1917606,7.41205827 42.2041608,7.41205827 C38.7462253,7.41205827 36.378227,9.05910176 35.1836908,11.8678806 L35.0580178,11.8678806 L35.0580178,7.83443688 L29.1480449,7.83443688 L29.1480449,30.471962 L35.2674728,30.471962 Z M12.6787114,31 C20.4115856,31 25.3364773,26.4175417 25.3364773,19.7022139 L25.3364773,-0.000155381462 L19.0075944,-0.000155381462 L19.0075944,19.0687755 C19.0075944,22.9755834 16.723378,25.5305726 12.6787114,25.5305726 C8.61322779,25.5305726 6.32875445,22.9755834 6.32875445,19.0687755 L6.32875445,-0.000155381462 L-0.000128500019,-0.000155381462 L-0.000128500019,19.7022139 C-0.000128500019,26.4175417 4.92476324,31 12.6787114,31 L12.6787114,31 Z" id="Fill-1" fill="#FFFFFF" mask="url(#mask-2)"></path>
                </g>
                <g id="Group-6" transform="translate(53.000000, 1.000000)">
                    <mask id="mask-4" fill="white">
                        <use xlink:href="#path-3"></use>
                    </mask>
                    <g id="Clip-5"></g>
                    <path d="M79.1284396,38.0001266 C84.763555,38.0001266 87.5194474,35.9760129 89.4112704,30.2967428 L97,7.66197455 L90.6657601,7.66197455 L85.9766823,24.9685015 L85.8740331,24.9685015 L81.1849553,7.66197455 L74.5833734,7.66197455 L82.2545755,29.8218663 C82.2956857,29.9044315 82.0692016,30.7923873 82.0692016,30.8749525 C81.657848,32.6306027 80.568051,33.3324069 78.3672715,33.3324069 L78.2081274,33.3324069 C77.8272911,33.3316471 77.0227431,33.3263285 76.866121,33.2913776 L76.866121,37.9380761 C76.9561598,37.9580842 77.4451939,37.9735335 77.947595,37.9836642 L78.1150621,37.9869567 C78.5877026,37.9955678 79.0338611,38.0001266 79.1284396,38.0001266 L79.1284396,38.0001266 Z M67.6756093,29.8010984 L67.6756093,17.4305014 C67.6756093,14.3120189 69.4029917,12.4945714 72.364687,12.4945714 C73.2279999,12.4945714 74.0507071,12.6391871 74.544281,12.8456001 L74.544281,7.53812675 C74.1329274,7.41402569 73.5367043,7.31094582 72.8375797,7.31094582 C70.2461278,7.31094582 68.3744816,8.83916182 67.593389,11.6478982 L67.4695542,11.6478982 L67.4695542,7.66197455 L61.6702505,7.66197455 L61.6702505,29.8010984 L67.6756093,29.8010984 Z M53.0348517,29.8010984 L53.0348517,17.4305014 C53.0348517,14.3120189 54.7624863,12.4945714 57.7239295,12.4945714 C58.5877468,12.4945714 59.4102017,12.6391871 59.9037756,12.8456001 L59.9037756,7.53812675 C59.4926742,7.41402569 58.8959467,7.31094582 58.1968222,7.31094582 C55.6053702,7.31094582 53.7339763,8.83916182 52.9526314,11.6478982 L52.829301,11.6478982 L52.829301,7.66197455 L47.0294929,7.66197455 L47.0294929,29.8010984 L53.0348517,29.8010984 Z M38.8465579,16.4184445 L29.4893357,16.4184445 C29.6948864,13.6509907 31.5869616,11.6478982 34.2195236,11.6478982 C36.8929436,11.6478982 38.7232274,13.5891935 38.8465579,16.4184445 L38.8465579,16.4184445 Z M34.3839642,30.2759749 C39.8337056,30.2759749 43.7822965,27.3641587 44.4405631,23.0272063 L38.9287781,23.0272063 C38.3736652,24.7205527 36.6873929,25.8151747 34.4866134,25.8151747 C31.422521,25.8151747 29.4275444,23.6466985 29.4275444,20.4871867 L29.4275444,20.1151367 L44.6256848,20.1151367 L44.6256848,18.2771746 C44.6256848,11.5445651 40.5741925,7.18684475 34.1574801,7.18684475 C27.6383707,7.18684475 23.525087,11.771746 23.525087,18.8348696 C23.525087,25.9185079 27.5972605,30.2759749 34.3839642,30.2759749 L34.3839642,30.2759749 Z M10.8793061,25.2990156 C7.95897307,25.2990156 5.98467763,22.7379748 5.98467763,18.7315365 C5.98467763,14.7663807 7.97940203,12.1435427 10.8793061,12.1435427 C13.8614304,12.1435427 15.7535056,14.7043302 15.7535056,18.7315365 C15.7535056,22.7792574 13.8818594,25.2990156 10.8793061,25.2990156 L10.8793061,25.2990156 Z M12.956503,30.1523804 C18.5091458,30.1523804 21.9026238,25.8567106 21.9026238,18.7315365 C21.9026238,11.5858477 18.4887169,7.31094582 12.9358218,7.31094582 C9.78925692,7.31094582 7.34206879,8.88044442 6.12868921,11.5032825 L6.00510659,11.5032825 L6.00510659,-0.000126633742 L0,-0.000126633742 L0,29.8010984 L5.92288632,29.8010984 L5.92288632,26.0010731 L6.04621673,26.0010731 C7.25959631,28.5826285 9.72771782,30.1523804 12.956503,30.1523804 L12.956503,30.1523804 Z" id="Fill-4" fill="#7E2EFF" mask="url(#mask-4)"></path>
                </g>
            </g>
        </g>
    </g>
</svg>