<?xml version="1.0" encoding="UTF-8"?>
<svg width="367px" height="607px" viewBox="0 0 367 607" version="1.1" xmlns="http://www.w3.org/2000/svg" xmlns:xlink="http://www.w3.org/1999/xlink">
    <!-- Generator: Sketch 62 (91390) - https://sketch.com -->
    <title>bg1</title>
    <desc>Created with Sketch.</desc>
    <defs>
        <path d="M80,434 C54,383.333 35.667,358 25,358 C14.333,358 14.333,296.333 25,173 L25,89 L98,89 L193,0 L229,33 L329,203 L462,489 L142,608 L0,565 L80,434 Z" id="path-1"></path>
    </defs>
    <g id="Page-1" stroke="none" stroke-width="1" fill="none" fill-rule="evenodd">
        <g id="bg1" transform="translate(136.000000, 304.000000) scale(-1, 1) translate(-136.000000, -304.000000) translate(-95.000000, 0.000000)">
            <g id="Group">
                <g id="Clipped">
                    <mask id="mask-2" fill="white">
                        <use xlink:href="#path-1"></use>
                    </mask>
                    <g id="gv2dtmavca"></g>
                    <g id="Group" mask="url(#mask-2)">
                        <g transform="translate(-154.000000, -673.000000)">
                            <g transform="translate(153.000000, 0.000000)">
                                <line x1="1.074" y1="0.91" x2="1.074" y2="1991.91" id="Path" stroke="#313131"></line>
                                <line x1="20.074" y1="0.91" x2="20.074" y2="1991.91" id="Path" stroke="#313131"></line>
                                <line x1="40.074" y1="0.91" x2="40.074" y2="1991.91" id="Path" stroke="#313131"></line>
                                <line x1="59.074" y1="0.91" x2="59.074" y2="1991.91" id="Path" stroke="#313131"></line>
                                <line x1="78.074" y1="0.91" x2="78.074" y2="1991.91" id="Path" stroke="#313131"></line>
                                <line x1="97.074" y1="0.91" x2="97.074" y2="1991.91" id="Path" stroke="#313131"></line>
                                <line x1="117.074" y1="0.91" x2="117.074" y2="1991.91" id="Path" stroke="#313131"></line>
                                <line x1="136.074" y1="0.91" x2="136.074" y2="1991.91" id="Path" stroke="#313131"></line>
                                <line x1="155.074" y1="0.91" x2="155.074" y2="1991.91" id="Path" stroke="#313131"></line>
                                <line x1="174.074" y1="0.91" x2="174.074" y2="1991.91" id="Path" stroke="#313131"></line>
                                <line x1="194.074" y1="0.91" x2="194.074" y2="1991.91" id="Path" stroke="#313131"></line>
                                <line x1="213.074" y1="0.91" x2="213.074" y2="1991.91" id="Path" stroke="#313131"></line>
                                <line x1="232.074" y1="0.91" x2="232.074" y2="1991.91" id="Path" stroke="#313131"></line>
                                <line x1="251.074" y1="0.91" x2="251.074" y2="1991.91" id="Path" stroke="#313131"></line>
                                <line x1="271.074" y1="0.91" x2="271.074" y2="1991.91" id="Path" stroke="#313131"></line>
                                <line x1="290.074" y1="0.91" x2="290.074" y2="1991.91" id="Path" stroke="#313131"></line>
                                <line x1="309.074" y1="0.91" x2="309.074" y2="1991.91" id="Path" stroke="#313131"></line>
                                <line x1="328.074" y1="0.91" x2="328.074" y2="1991.91" id="Path" stroke="#313131"></line>
                                <line x1="348.074" y1="0.91" x2="348.074" y2="1991.91" id="Path" stroke="#313131"></line>
                                <line x1="367.074" y1="0.91" x2="367.074" y2="1991.91" id="Path" stroke="#313131"></line>
                            </g>
                            <g transform="translate(0.000000, 678.000000)">
                                <line x1="260.074" y1="-259.09" x2="260.074" y2="260.91" id="Path" stroke="#313131" transform="translate(260.074000, 0.910000) rotate(90.000000) translate(-260.074000, -0.910000) "></line>
                                <line x1="260.074" y1="63.91" x2="260.074" y2="583.91" id="Path" stroke="#313131" transform="translate(260.074000, 323.910000) rotate(90.000000) translate(-260.074000, -323.910000) "></line>
                                <line x1="260.074" y1="-88.09" x2="260.074" y2="431.91" id="Path" stroke="#313131" transform="translate(260.074000, 171.910000) rotate(90.000000) translate(-260.074000, -171.910000) "></line>
                                <line x1="260.074" y1="253.91" x2="260.074" y2="773.91" id="Path" stroke="#313131" transform="translate(260.074000, 513.910000) rotate(90.000000) translate(-260.074000, -513.910000) "></line>
                                <line x1="260.074" y1="-183.09" x2="260.074" y2="336.91" id="Path" stroke="#313131" transform="translate(260.074000, 76.910000) rotate(90.000000) translate(-260.074000, -76.910000) "></line>
                                <line x1="260.074" y1="158.91" x2="260.074" y2="678.91" id="Path" stroke="#313131" transform="translate(260.074000, 418.910000) rotate(90.000000) translate(-260.074000, -418.910000) "></line>
                                <line x1="260.074" y1="-12.09" x2="260.074" y2="507.91" id="Path" stroke="#313131" transform="translate(260.074000, 247.910000) rotate(90.000000) translate(-260.074000, -247.910000) "></line>
                                <line x1="260.074" y1="329.91" x2="260.074" y2="849.91" id="Path" stroke="#313131" transform="translate(260.074000, 589.910000) rotate(90.000000) translate(-260.074000, -589.910000) "></line>
                                <line x1="260.074" y1="-145.09" x2="260.074" y2="374.91" id="Path" stroke="#313131" transform="translate(260.074000, 114.910000) rotate(90.000000) translate(-260.074000, -114.910000) "></line>
                                <line x1="260.074" y1="196.91" x2="260.074" y2="716.91" id="Path" stroke="#313131" transform="translate(260.074000, 456.910000) rotate(90.000000) translate(-260.074000, -456.910000) "></line>
                                <line x1="260.074" y1="25.91" x2="260.074" y2="545.91" id="Path" stroke="#313131" transform="translate(260.074000, 285.910000) rotate(90.000000) translate(-260.074000, -285.910000) "></line>
                                <line x1="260.074" y1="-221.09" x2="260.074" y2="298.91" id="Path" stroke="#313131" transform="translate(260.074000, 38.910000) rotate(90.000000) translate(-260.074000, -38.910000) "></line>
                                <line x1="260.074" y1="120.91" x2="260.074" y2="640.91" id="Path" stroke="#313131" transform="translate(260.074000, 380.910000) rotate(90.000000) translate(-260.074000, -380.910000) "></line>
                                <line x1="260.074" y1="-50.09" x2="260.074" y2="469.91" id="Path" stroke="#313131" transform="translate(260.074000, 209.910000) rotate(90.000000) translate(-260.074000, -209.910000) "></line>
                                <line x1="260.074" y1="291.91" x2="260.074" y2="811.91" id="Path" stroke="#313131" transform="translate(260.074000, 551.910000) rotate(90.000000) translate(-260.074000, -551.910000) "></line>
                                <line x1="260.074" y1="-107.09" x2="260.074" y2="412.91" id="Path" stroke="#313131" transform="translate(260.074000, 152.910000) rotate(90.000000) translate(-260.074000, -152.910000) "></line>
                                <line x1="260.074" y1="234.91" x2="260.074" y2="754.91" id="Path" stroke="#313131" transform="translate(260.074000, 494.910000) rotate(90.000000) translate(-260.074000, -494.910000) "></line>
                                <line x1="260.074" y1="82.91" x2="260.074" y2="602.91" id="Path" stroke="#313131" transform="translate(260.074000, 342.910000) rotate(90.000000) translate(-260.074000, -342.910000) "></line>
                                <line x1="260.074" y1="-126.09" x2="260.074" y2="393.91" id="Path" stroke="#313131" transform="translate(260.074000, 133.910000) rotate(90.000000) translate(-260.074000, -133.910000) "></line>
                                <line x1="260.074" y1="215.91" x2="260.074" y2="735.91" id="Path" stroke="#313131" transform="translate(260.074000, 475.910000) rotate(90.000000) translate(-260.074000, -475.910000) "></line>
                                <line x1="260.074" y1="44.91" x2="260.074" y2="564.91" id="Path" stroke="#313131" transform="translate(260.074000, 304.910000) rotate(90.000000) translate(-260.074000, -304.910000) "></line>
                                <line x1="260.074" y1="-164.09" x2="260.074" y2="355.91" id="Path" stroke="#313131" transform="translate(260.074000, 95.910000) rotate(90.000000) translate(-260.074000, -95.910000) "></line>
                                <line x1="260.074" y1="177.91" x2="260.074" y2="697.91" id="Path" stroke="#313131" transform="translate(260.074000, 437.910000) rotate(90.000000) translate(-260.074000, -437.910000) "></line>
                                <line x1="260.074" y1="6.91" x2="260.074" y2="526.91" id="Path" stroke="#313131" transform="translate(260.074000, 266.910000) rotate(90.000000) translate(-260.074000, -266.910000) "></line>
                                <line x1="260.074" y1="-240.09" x2="260.074" y2="279.91" id="Path" stroke="#313131" transform="translate(260.074000, 19.910000) rotate(90.000000) translate(-260.074000, -19.910000) "></line>
                                <line x1="260.074" y1="101.91" x2="260.074" y2="621.91" id="Path" stroke="#313131" transform="translate(260.074000, 361.910000) rotate(90.000000) translate(-260.074000, -361.910000) "></line>
                                <line x1="260.074" y1="-69.09" x2="260.074" y2="450.91" id="Path" stroke="#313131" transform="translate(260.074000, 190.910000) rotate(90.000000) translate(-260.074000, -190.910000) "></line>
                                <line x1="260.074" y1="272.91" x2="260.074" y2="792.91" id="Path" stroke="#313131" transform="translate(260.074000, 532.910000) rotate(90.000000) translate(-260.074000, -532.910000) "></line>
                                <line x1="260.074" y1="-202.09" x2="260.074" y2="317.91" id="Path" stroke="#313131" transform="translate(260.074000, 57.910000) rotate(90.000000) translate(-260.074000, -57.910000) "></line>
                                <line x1="260.074" y1="139.91" x2="260.074" y2="659.91" id="Path" stroke="#313131" transform="translate(260.074000, 399.910000) rotate(90.000000) translate(-260.074000, -399.910000) "></line>
                                <line x1="260.074" y1="-31.09" x2="260.074" y2="488.91" id="Path" stroke="#313131" transform="translate(260.074000, 228.910000) rotate(90.000000) translate(-260.074000, -228.910000) "></line>
                                <line x1="260.074" y1="310.91" x2="260.074" y2="830.91" id="Path" stroke="#313131" transform="translate(260.074000, 570.910000) rotate(90.000000) translate(-260.074000, -570.910000) "></line>
                            </g>
                        </g>
                    </g>
                </g>
            </g>
        </g>
    </g>
</svg>