<?xml version="1.0" encoding="UTF-8"?>
<svg width="1680px" height="408px" viewBox="0 0 1680 408" version="1.1" xmlns="http://www.w3.org/2000/svg" xmlns:xlink="http://www.w3.org/1999/xlink">
    <!-- Generator: Sketch 62 (91390) - https://sketch.com -->
    <title>Group 71</title>
    <desc>Created with Sketch.</desc>
    <defs>
        <polygon id="path-1" points="50.92 0 67.67 16.08 67.67 67 16.75 67 0 50.92 0 0"></polygon>
        <polygon id="path-3" points="50.92 0 67.67 16.08 67.67 67 16.75 67 0 50.92 0 0"></polygon>
        <polygon id="path-5" points="50.92 0 67.67 16.08 67.67 67 16.75 67 0 50.92 0 0"></polygon>
        <polygon id="path-7" points="50.92 0 67.67 16.08 67.67 67 16.75 67 0 50.92 0 0"></polygon>
        <polygon id="path-9" points="50.92 0 67.67 16.08 67.67 67 16.75 67 0 50.92 0 0"></polygon>
        <polygon id="path-11" points="50.92 0 67.67 16.08 67.67 67 16.75 67 0 50.92 0 0"></polygon>
        <polygon id="path-13" points="50.92 0 67.67 16.08 67.67 67 16.75 67 0 50.92 0 0"></polygon>
        <polygon id="path-15" points="50.92 0 67.67 16.08 67.67 67 16.75 67 0 50.92 0 0"></polygon>
        <polygon id="path-17" points="50.92 0 67.67 16.08 67.67 67 16.75 67 0 50.92 0 0"></polygon>
        <polygon id="path-19" points="50.92 0 67.67 16.08 67.67 67 16.75 67 0 50.92 0 0"></polygon>
        <polygon id="path-21" points="50.92 0 67.67 16.08 67.67 67 16.75 67 0 50.92 0 0"></polygon>
        <polygon id="path-23" points="50.92 0 67.67 16.08 67.67 67 16.75 67 0 50.92 0 0"></polygon>
        <polygon id="path-25" points="50.92 0 67.67 16.08 67.67 67 16.75 67 0 50.92 0 0"></polygon>
        <polygon id="path-27" points="50.92 0 67.67 16.08 67.67 67 16.75 67 0 50.92 0 0"></polygon>
        <polygon id="path-29" points="50.92 0 67.67 16.08 67.67 67 16.75 67 0 50.92 0 0"></polygon>
        <polygon id="path-31" points="50.92 0 67.67 16.08 67.67 67 16.75 67 0 50.92 0 0"></polygon>
        <polygon id="path-33" points="50.92 0 67.67 16.08 67.67 67 16.75 67 0 50.92 0 0"></polygon>
        <polygon id="path-35" points="50.92 0 67.67 16.08 67.67 67 16.75 67 0 50.92 0 0"></polygon>
        <polygon id="path-37" points="50.92 0 67.67 16.08 67.67 67 16.75 67 0 50.92 0 0"></polygon>
        <polygon id="path-39" points="50.92 0 67.67 16.08 67.67 67 16.75 67 0 50.92 0 0"></polygon>
    </defs>
    <g id="Page-1" stroke="none" stroke-width="1" fill="none" fill-rule="evenodd">
        <g id="Unberry-Landing" transform="translate(0.000000, -7334.000000)">
            <g id="Group-66" transform="translate(-1.000000, 7331.000000)">
                <g id="Group-28" transform="translate(0.000000, -0.000000)">
                    <g id="Group-71" transform="translate(0.961524, 0.963715)">
                        <g id="Group-10-Copy-2" transform="translate(94.000000, 243.197673) rotate(-30.000000) translate(-94.000000, -243.197673) translate(34.000000, 159.197673)">
                            <g id="Group" transform="translate(0.000000, 0.000000)">
                                <g id="Group-4-Copy" transform="translate(-0.000000, 0.000000)">
                                    <g id="Cube-3" transform="translate(52.000000, 101.000000)">
                                        <g id="Group">
                                            <mask id="mask-2" fill="white">
                                                <use xlink:href="#path-1"></use>
                                            </mask>
                                            <path stroke="#000000" d="M68.17,15.8668911 L68.17,67.5 L16.5488449,67.5 L-0.5,51.1331089 L-0.5,-0.5 L51.1211551,-0.5 L68.17,15.8668911 Z"></path>
                                            <path d="M84.92,32.6168911 L84.92,84.25 L33.2988449,84.25 L16.25,67.8831089 L16.25,16.25 L67.8711551,16.25 L84.92,32.6168911 Z" id="Path-Copy" stroke="#000000" fill="#FFFFFF" mask="url(#mask-2)"></path>
                                            <line x1="16.75" y1="16.75" x2="0" y2="0" id="Path" stroke="#000000" mask="url(#mask-2)"></line>
                                        </g>
                                    </g>
                                    <g id="Cube-3" transform="translate(52.000000, 51.000000)">
                                        <g id="Group">
                                            <mask id="mask-4" fill="white">
                                                <use xlink:href="#path-3"></use>
                                            </mask>
                                            <path stroke="#000000" d="M68.17,15.8668911 L68.17,67.5 L16.5488449,67.5 L-0.5,51.1331089 L-0.5,-0.5 L51.1211551,-0.5 L68.17,15.8668911 Z"></path>
                                            <path d="M84.92,32.6168911 L84.92,84.25 L33.2988449,84.25 L16.25,67.8831089 L16.25,16.25 L67.8711551,16.25 L84.92,32.6168911 Z" id="Path-Copy" stroke="#000000" fill="#FFFFFF" mask="url(#mask-4)"></path>
                                            <line x1="16.75" y1="16.75" x2="0" y2="0" id="Path" stroke="#000000" mask="url(#mask-4)"></line>
                                        </g>
                                    </g>
                                    <g id="Cube-3" transform="translate(0.000000, 51.000000)">
                                        <g id="Group">
                                            <mask id="mask-6" fill="white">
                                                <use xlink:href="#path-5"></use>
                                            </mask>
                                            <path stroke="#000000" d="M68.17,15.8668911 L68.17,67.5 L16.5488449,67.5 L-0.5,51.1331089 L-0.5,-0.5 L51.1211551,-0.5 L68.17,15.8668911 Z"></path>
                                            <path d="M84.92,32.6168911 L84.92,84.25 L33.2988449,84.25 L16.25,67.8831089 L16.25,16.25 L67.8711551,16.25 L84.92,32.6168911 Z" id="Path-Copy" stroke="#000000" fill="#FFFFFF" mask="url(#mask-6)"></path>
                                            <line x1="16.75" y1="16.75" x2="0" y2="0" id="Path" stroke="#000000" mask="url(#mask-6)"></line>
                                        </g>
                                    </g>
                                    <g id="Cube-3">
                                        <g id="Group">
                                            <mask id="mask-8" fill="white">
                                                <use xlink:href="#path-7"></use>
                                            </mask>
                                            <path stroke="#000000" d="M68.17,15.8668911 L68.17,67.5 L16.5488449,67.5 L-0.5,51.1331089 L-0.5,-0.5 L51.1211551,-0.5 L68.17,15.8668911 Z"></path>
                                            <path d="M84.92,32.6168911 L84.92,84.25 L33.2988449,84.25 L16.25,67.8831089 L16.25,16.25 L67.8711551,16.25 L84.92,32.6168911 Z" id="Path-Copy" stroke="#000000" fill="#FFFFFF" mask="url(#mask-8)"></path>
                                            <line x1="16.75" y1="16.75" x2="0" y2="0" id="Path" stroke="#000000" mask="url(#mask-8)"></line>
                                        </g>
                                    </g>
                                </g>
                            </g>
                        </g>
                        <g id="Group-10-Copy-12" transform="translate(1459.000000, 340.197673) rotate(-30.000000) translate(-1459.000000, -340.197673) translate(1399.000000, 256.197673)">
                            <g id="Group" transform="translate(0.000000, 0.000000)">
                                <g id="Group-4-Copy" transform="translate(-0.000000, 0.000000)">
                                    <g id="Cube-3" transform="translate(52.000000, 101.000000)">
                                        <g id="Group">
                                            <mask id="mask-10" fill="white">
                                                <use xlink:href="#path-9"></use>
                                            </mask>
                                            <path stroke="#000000" d="M68.17,15.8668911 L68.17,67.5 L16.5488449,67.5 L-0.5,51.1331089 L-0.5,-0.5 L51.1211551,-0.5 L68.17,15.8668911 Z"></path>
                                            <path d="M84.92,32.6168911 L84.92,84.25 L33.2988449,84.25 L16.25,67.8831089 L16.25,16.25 L67.8711551,16.25 L84.92,32.6168911 Z" id="Path-Copy" stroke="#000000" fill="#FFFFFF" mask="url(#mask-10)"></path>
                                            <line x1="16.75" y1="16.75" x2="0" y2="0" id="Path" stroke="#000000" mask="url(#mask-10)"></line>
                                        </g>
                                    </g>
                                    <g id="Cube-3" transform="translate(52.000000, 51.000000)">
                                        <g id="Group">
                                            <mask id="mask-12" fill="white">
                                                <use xlink:href="#path-11"></use>
                                            </mask>
                                            <path stroke="#000000" d="M68.17,15.8668911 L68.17,67.5 L16.5488449,67.5 L-0.5,51.1331089 L-0.5,-0.5 L51.1211551,-0.5 L68.17,15.8668911 Z"></path>
                                            <path d="M84.92,32.6168911 L84.92,84.25 L33.2988449,84.25 L16.25,67.8831089 L16.25,16.25 L67.8711551,16.25 L84.92,32.6168911 Z" id="Path-Copy" stroke="#000000" fill="#FFFFFF" mask="url(#mask-12)"></path>
                                            <line x1="16.75" y1="16.75" x2="0" y2="0" id="Path" stroke="#000000" mask="url(#mask-12)"></line>
                                        </g>
                                    </g>
                                    <g id="Cube-3" transform="translate(0.000000, 51.000000)">
                                        <g id="Group">
                                            <mask id="mask-14" fill="white">
                                                <use xlink:href="#path-13"></use>
                                            </mask>
                                            <path stroke="#000000" d="M68.17,15.8668911 L68.17,67.5 L16.5488449,67.5 L-0.5,51.1331089 L-0.5,-0.5 L51.1211551,-0.5 L68.17,15.8668911 Z"></path>
                                            <path d="M84.92,32.6168911 L84.92,84.25 L33.2988449,84.25 L16.25,67.8831089 L16.25,16.25 L67.8711551,16.25 L84.92,32.6168911 Z" id="Path-Copy" stroke="#000000" fill="#FFFFFF" mask="url(#mask-14)"></path>
                                            <line x1="16.75" y1="16.75" x2="0" y2="0" id="Path" stroke="#000000" mask="url(#mask-14)"></line>
                                        </g>
                                    </g>
                                    <g id="Cube-3">
                                        <g id="Group">
                                            <mask id="mask-16" fill="white">
                                                <use xlink:href="#path-15"></use>
                                            </mask>
                                            <path stroke="#000000" d="M68.17,15.8668911 L68.17,67.5 L16.5488449,67.5 L-0.5,51.1331089 L-0.5,-0.5 L51.1211551,-0.5 L68.17,15.8668911 Z"></path>
                                            <path d="M84.92,32.6168911 L84.92,84.25 L33.2988449,84.25 L16.25,67.8831089 L16.25,16.25 L67.8711551,16.25 L84.92,32.6168911 Z" id="Path-Copy" stroke="#000000" fill="#FFFFFF" mask="url(#mask-16)"></path>
                                            <line x1="16.75" y1="16.75" x2="0" y2="0" id="Path" stroke="#000000" mask="url(#mask-16)"></line>
                                        </g>
                                    </g>
                                </g>
                            </g>
                        </g>
                        <g id="Group-8-Copy-2" transform="translate(1040.099140, 102.500000) rotate(-44.000000) translate(-1040.099140, -102.500000) translate(980.099140, 18.000000)">
                            <g id="Group-7" transform="translate(0.000000, 0.000000)">
                                <g id="Cube-3" transform="translate(52.000000, 102.000000)">
                                    <g id="Group">
                                        <mask id="mask-18" fill="white">
                                            <use xlink:href="#path-17"></use>
                                        </mask>
                                        <path stroke="#000000" d="M68.17,15.8668911 L68.17,67.5 L16.5488449,67.5 L-0.5,51.1331089 L-0.5,-0.5 L51.1211551,-0.5 L68.17,15.8668911 Z"></path>
                                        <path d="M84.92,32.6168911 L84.92,84.25 L33.2988449,84.25 L16.25,67.8831089 L16.25,16.25 L67.8711551,16.25 L84.92,32.6168911 Z" id="Path-Copy" stroke="#000000" fill="#FFFFFF" mask="url(#mask-18)"></path>
                                        <line x1="16.75" y1="16.75" x2="0" y2="0" id="Path" stroke="#000000" mask="url(#mask-18)"></line>
                                    </g>
                                </g>
                                <g id="Cube-3" transform="translate(52.000000, 51.000000)">
                                    <g id="Group">
                                        <mask id="mask-20" fill="white">
                                            <use xlink:href="#path-19"></use>
                                        </mask>
                                        <path stroke="#000000" d="M68.17,15.8668911 L68.17,67.5 L16.5488449,67.5 L-0.5,51.1331089 L-0.5,-0.5 L51.1211551,-0.5 L68.17,15.8668911 Z"></path>
                                        <path d="M84.92,32.6168911 L84.92,84.25 L33.2988449,84.25 L16.25,67.8831089 L16.25,16.25 L67.8711551,16.25 L84.92,32.6168911 Z" id="Path-Copy" stroke="#000000" fill="#FFFFFF" mask="url(#mask-20)"></path>
                                        <line x1="16.75" y1="16.75" x2="0" y2="0" id="Path" stroke="#000000" mask="url(#mask-20)"></line>
                                    </g>
                                </g>
                                <g id="Cube-3" transform="translate(52.000000, 0.000000)">
                                    <g id="Group">
                                        <mask id="mask-22" fill="white">
                                            <use xlink:href="#path-21"></use>
                                        </mask>
                                        <path stroke="#000000" d="M68.17,15.8668911 L68.17,67.5 L16.5488449,67.5 L-0.5,51.1331089 L-0.5,-0.5 L51.1211551,-0.5 L68.17,15.8668911 Z"></path>
                                        <path d="M84.92,32.6168911 L84.92,84.25 L33.2988449,84.25 L16.25,67.8831089 L16.25,16.25 L67.8711551,16.25 L84.92,32.6168911 Z" id="Path-Copy" stroke="#000000" fill="#FFFFFF" mask="url(#mask-22)"></path>
                                        <line x1="16.75" y1="16.75" x2="0" y2="0" id="Path" stroke="#000000" mask="url(#mask-22)"></line>
                                    </g>
                                </g>
                                <g id="Cube-3" transform="translate(0.000000, 0.000000)">
                                    <g id="Group">
                                        <mask id="mask-24" fill="white">
                                            <use xlink:href="#path-23"></use>
                                        </mask>
                                        <path stroke="#000000" d="M68.17,15.8668911 L68.17,67.5 L16.5488449,67.5 L-0.5,51.1331089 L-0.5,-0.5 L51.1211551,-0.5 L68.17,15.8668911 Z"></path>
                                        <path d="M84.92,32.6168911 L84.92,84.25 L33.2988449,84.25 L16.25,67.8831089 L16.25,16.25 L67.8711551,16.25 L84.92,32.6168911 Z" id="Path-Copy" stroke="#000000" fill="#FFFFFF" mask="url(#mask-24)"></path>
                                        <line x1="16.75" y1="16.75" x2="0" y2="0" id="Path" stroke="#000000" mask="url(#mask-24)"></line>
                                    </g>
                                </g>
                            </g>
                            <path d="M120.17,118 L120.17,169.5 L68.5488449,169.5 L51.5,153.133109 L51.5,102 L51.5,67.5 L16.5488449,67.5 L-0.5,51.1331089 L-0.5,-0.5 L51.1211831,-0.5 L51.5,-0.136265657 L103.121155,-0.5 L120.17,15.8668911 L120.17,67 L120.17,118 Z" id="Combined-Shape" stroke="#000000" fill="#FFFFFF" style="mix-blend-mode: multiply;"></path>
                        </g>
                        <g id="Group-8-Copy" transform="translate(574.099140, 88.000000) rotate(20.000000) translate(-574.099140, -88.000000) translate(488.099140, 29.000000)">
                            <g id="Group-7">
                                <g id="Cube-3" transform="translate(52.000000, 51.000000)">
                                    <g id="Group">
                                        <mask id="mask-26" fill="white">
                                            <use xlink:href="#path-25"></use>
                                        </mask>
                                        <path stroke="#000000" d="M68.17,15.8668911 L68.17,67.5 L16.5488449,67.5 L-0.5,51.1331089 L-0.5,-0.5 L51.1211551,-0.5 L68.17,15.8668911 Z"></path>
                                        <path d="M84.92,32.6168911 L84.92,84.25 L33.2988449,84.25 L16.25,67.8831089 L16.25,16.25 L67.8711551,16.25 L84.92,32.6168911 Z" id="Path-Copy" stroke="#000000" fill="#FFFFFF" mask="url(#mask-26)"></path>
                                        <line x1="16.75" y1="16.75" x2="0" y2="0" id="Path" stroke="#000000" mask="url(#mask-26)"></line>
                                    </g>
                                </g>
                                <g id="Cube-3" transform="translate(104.000000, 0.000000)">
                                    <g id="Group">
                                        <mask id="mask-28" fill="white">
                                            <use xlink:href="#path-27"></use>
                                        </mask>
                                        <path stroke="#000000" d="M68.17,15.8668911 L68.17,67.5 L16.5488449,67.5 L-0.5,51.1331089 L-0.5,-0.5 L51.1211551,-0.5 L68.17,15.8668911 Z"></path>
                                        <path d="M84.92,32.6168911 L84.92,84.25 L33.2988449,84.25 L16.25,67.8831089 L16.25,16.25 L67.8711551,16.25 L84.92,32.6168911 Z" id="Path-Copy" stroke="#000000" fill="#FFFFFF" mask="url(#mask-28)"></path>
                                        <line x1="16.75" y1="16.75" x2="0" y2="0" id="Path" stroke="#000000" mask="url(#mask-28)"></line>
                                    </g>
                                </g>
                                <g id="Cube-3" transform="translate(52.000000, 0.000000)">
                                    <g id="Group">
                                        <mask id="mask-30" fill="white">
                                            <use xlink:href="#path-29"></use>
                                        </mask>
                                        <path stroke="#000000" d="M68.17,15.8668911 L68.17,67.5 L16.5488449,67.5 L-0.5,51.1331089 L-0.5,-0.5 L51.1211551,-0.5 L68.17,15.8668911 Z"></path>
                                        <path d="M84.92,32.6168911 L84.92,84.25 L33.2988449,84.25 L16.25,67.8831089 L16.25,16.25 L67.8711551,16.25 L84.92,32.6168911 Z" id="Path-Copy" stroke="#000000" fill="#FFFFFF" mask="url(#mask-30)"></path>
                                        <line x1="16.75" y1="16.75" x2="0" y2="0" id="Path" stroke="#000000" mask="url(#mask-30)"></line>
                                    </g>
                                </g>
                                <g id="Cube-3">
                                    <g id="Group">
                                        <mask id="mask-32" fill="white">
                                            <use xlink:href="#path-31"></use>
                                        </mask>
                                        <path stroke="#000000" d="M68.17,15.8668911 L68.17,67.5 L16.5488449,67.5 L-0.5,51.1331089 L-0.5,-0.5 L51.1211551,-0.5 L68.17,15.8668911 Z"></path>
                                        <path d="M84.92,32.6168911 L84.92,84.25 L33.2988449,84.25 L16.25,67.8831089 L16.25,16.25 L67.8711551,16.25 L84.92,32.6168911 Z" id="Path-Copy" stroke="#000000" fill="#FFFFFF" mask="url(#mask-32)"></path>
                                        <line x1="16.75" y1="16.75" x2="0" y2="0" id="Path" stroke="#000000" mask="url(#mask-32)"></line>
                                    </g>
                                </g>
                            </g>
                        </g>
                        <g id="Group-8-Copy-4" transform="translate(1637.099140, 185.000000) rotate(20.000000) translate(-1637.099140, -185.000000) translate(1551.099140, 126.000000)">
                            <g id="Group-7">
                                <g id="Cube-3" transform="translate(52.000000, 51.000000)">
                                    <g id="Group">
                                        <mask id="mask-34" fill="white">
                                            <use xlink:href="#path-33"></use>
                                        </mask>
                                        <path stroke="#000000" d="M68.17,15.8668911 L68.17,67.5 L16.5488449,67.5 L-0.5,51.1331089 L-0.5,-0.5 L51.1211551,-0.5 L68.17,15.8668911 Z"></path>
                                        <path d="M84.92,32.6168911 L84.92,84.25 L33.2988449,84.25 L16.25,67.8831089 L16.25,16.25 L67.8711551,16.25 L84.92,32.6168911 Z" id="Path-Copy" stroke="#000000" fill="#FFFFFF" mask="url(#mask-34)"></path>
                                        <line x1="16.75" y1="16.75" x2="0" y2="0" id="Path" stroke="#000000" mask="url(#mask-34)"></line>
                                    </g>
                                </g>
                                <g id="Cube-3" transform="translate(104.000000, 0.000000)">
                                    <g id="Group">
                                        <mask id="mask-36" fill="white">
                                            <use xlink:href="#path-35"></use>
                                        </mask>
                                        <path stroke="#000000" d="M68.17,15.8668911 L68.17,67.5 L16.5488449,67.5 L-0.5,51.1331089 L-0.5,-0.5 L51.1211551,-0.5 L68.17,15.8668911 Z"></path>
                                        <path d="M84.92,32.6168911 L84.92,84.25 L33.2988449,84.25 L16.25,67.8831089 L16.25,16.25 L67.8711551,16.25 L84.92,32.6168911 Z" id="Path-Copy" stroke="#000000" fill="#FFFFFF" mask="url(#mask-36)"></path>
                                        <line x1="16.75" y1="16.75" x2="0" y2="0" id="Path" stroke="#000000" mask="url(#mask-36)"></line>
                                    </g>
                                </g>
                                <g id="Cube-3" transform="translate(52.000000, 0.000000)">
                                    <g id="Group">
                                        <mask id="mask-38" fill="white">
                                            <use xlink:href="#path-37"></use>
                                        </mask>
                                        <path stroke="#000000" d="M68.17,15.8668911 L68.17,67.5 L16.5488449,67.5 L-0.5,51.1331089 L-0.5,-0.5 L51.1211551,-0.5 L68.17,15.8668911 Z"></path>
                                        <path d="M84.92,32.6168911 L84.92,84.25 L33.2988449,84.25 L16.25,67.8831089 L16.25,16.25 L67.8711551,16.25 L84.92,32.6168911 Z" id="Path-Copy" stroke="#000000" fill="#FFFFFF" mask="url(#mask-38)"></path>
                                        <line x1="16.75" y1="16.75" x2="0" y2="0" id="Path" stroke="#000000" mask="url(#mask-38)"></line>
                                    </g>
                                </g>
                                <g id="Cube-3">
                                    <g id="Group">
                                        <mask id="mask-40" fill="white">
                                            <use xlink:href="#path-39"></use>
                                        </mask>
                                        <path stroke="#000000" d="M68.17,15.8668911 L68.17,67.5 L16.5488449,67.5 L-0.5,51.1331089 L-0.5,-0.5 L51.1211551,-0.5 L68.17,15.8668911 Z"></path>
                                        <path d="M84.92,32.6168911 L84.92,84.25 L33.2988449,84.25 L16.25,67.8831089 L16.25,16.25 L67.8711551,16.25 L84.92,32.6168911 Z" id="Path-Copy" stroke="#000000" fill="#FFFFFF" mask="url(#mask-40)"></path>
                                        <line x1="16.75" y1="16.75" x2="0" y2="0" id="Path" stroke="#000000" mask="url(#mask-40)"></line>
                                    </g>
                                </g>
                            </g>
                        </g>
                    </g>
                </g>
            </g>
        </g>
    </g>
</svg>